<?xml version="1.0" encoding="utf-8"?>
<!-- Generator: Adobe Illustrator 27.8.1, SVG Export Plug-In . SVG Version: 6.00 Build 0)  -->
<svg version="1.1" id="Layer_1" xmlns="http://www.w3.org/2000/svg" xmlns:xlink="http://www.w3.org/1999/xlink" x="0px" y="0px"
	 viewBox="0 0 251.8 252" style="enable-background:new 0 0 251.8 252;" xml:space="preserve">
<style type="text/css">
	.st0{fill:#66CCFF;}
</style>
<path class="st0" d="M75.9,91.1C69.3,79.8,77.8,62.2,93.6,64c0.1-1.5,0.2-2.9,0.4-4.4c0.5-4.2,2.2-7.8,5-11
	c4.7-5.4,14.5-7.4,21.1-3.1c1.5,1,2.7,2.5,4,3.9c0.3,0.3,0.5,0.6,0.7,1c1-1.2,1.8-2.5,3-3.5c4.8-4.3,12.6-5,18.5-1.9
	c6.8,3.6,9.5,9.6,9.9,17c0,0.6,0,1.3,0,2.1c7.4-0.8,13.2,1.9,17.1,8c3.9,6,4.1,12.4,0.9,18.9c1.1,0.5,2.3,1,3.4,1.6
	c4.4,2.3,6.8,6.1,8.2,10.6c1.9,5.9,1.7,11.9-0.4,17.7c-1.2,3.3-3.3,6.1-6.5,7.9c-0.9,0.5-0.7,1.1-0.6,1.9c0.3,2.4,0.8,4.7,0.9,7.1
	c0.3,3.7-0.4,7.2-1.9,10.6c-3.3,7.6-9.2,11.5-17.2,12.6c-1.5,0.2-2.9,0.3-4.4,0.3c-0.8,0-1.1,0.3-1.5,1c-1.3,2.5-2.4,5.2-4.1,7.4
	c-3.6,4.7-8.6,6.2-14.3,5.1c-4.6-0.9-8.4-3.1-10.6-7.5c0-0.1-0.1-0.1-0.2-0.1c-0.8,1.1-1.6,2.3-2.5,3.2c-4.4,4.2-9.7,5.6-15.4,4.1
	c-3.8-1-6.7-3.4-8.6-7c-1-1.8-1.9-3.7-2.8-5.6c-0.3-0.8-0.9-0.7-1.5-0.7c-4.4,0-8.6-0.7-12.5-2.9c-6.3-3.5-9.6-9-10.7-16
	c-0.6-4-0.3-7.9,0.7-11.8c0.3-1,0.1-1.5-0.8-2.1c-4.1-2.5-6.2-6.4-7.2-10.9c-1.1-4.7-1-9.4,0.4-14.1c1.5-5.1,4.4-9.2,9.2-11.7
	C74.1,91.7,75,91.5,75.9,91.1z M156.4,156.8c2.6,0.2,6-0.6,8.6-1.8c5.7-2.6,8.5-7.2,9.4-13.2c0.5-3.5,0.3-7.1-0.8-10.6
	c-0.6,0.1-1.1,0.3-1.6,0.4c-5,1-10.2,1.3-14.7,3.9c-0.9,0.5-2.2,0-2.7-0.9c-0.5-1-0.3-2.3,0.6-2.9c1.5-0.9,3.1-1.9,4.8-2.4
	c3.9-1,8-1.7,11.9-2.5c5.2-1,8.5-4.6,9.7-9.2c1.1-4.3,1.1-8.6-0.2-12.9c-0.8-2.8-2.3-5.4-4.7-7.2c-4.9-3.8-12-2.1-13.8,5.3
	c-0.3,1.4-0.3,2.8-0.5,4.3c-0.1,1.2-0.9,2-2.1,2c-1.2,0-2.1-0.6-2.2-1.7c-0.5-5.4,1.5-11.6,6.9-14.5c1.3-0.7,2.8-1.4,3.8-2.5
	c3.4-3.7,3.8-9.6,1.3-14.3c-3.1-5.9-9.1-8.5-15.3-6.7c-2.1,0.6-3.9,1.8-5.5,3.3c-0.9,0.9-2.3,0.8-3.1,0c-0.8-0.9-0.9-2.3,0-3.1
	c1.2-1.1,2.5-2.3,3.9-3.1c1.1-0.7,1.7-1.4,1.5-2.6c0-0.3,0-0.6,0-1c-0.2-4.5-1.2-8.7-4.9-11.7c-3.6-2.9-7.6-4.4-12.4-2.7
	c-4.8,1.7-7.3,5.7-7.4,10.9c0,7.8,0,15.5,0,23.3c0,0.4,0,0.9,0,1.4c0.6,0,1,0,1.4,0c3.8,0,7.6,0.1,11.4,0c5.5-0.2,9.5,4.5,9.5,9.2
	c0,10.7,0,21.5,0,32.2c0,5.2-3.9,8.9-9.2,8.9c-3.9,0-7.8,0-11.7,0c-0.4,0-0.9,0-1.4,0.1c0,0.6,0,1,0,1.5c0,6.7,0,13.4,0,20.1
	c0,1.9,0.1,3.8,0.5,5.7c1.9,9.1,11.6,10.7,16.8,7.3c2.5-1.7,3.9-4.4,5.1-7.1c1.9-4.3,3.2-8.9,5.8-12.8c1.5-2.2,3.2-4.1,5.8-5
	c1.3-0.5,2.5,0,3,1.2c0.5,1.1,0,2.3-1.2,2.9c-0.5,0.2-1,0.4-1.4,0.7C159.2,151.1,157.5,153.7,156.4,156.8z M76,131.2
	c-0.3,1.9-0.6,3.7-0.8,5.5c-0.4,5,0.7,9.7,3.7,13.8c1.8,2.4,4.4,3.9,7.1,5.1c2.3,1,4.8,1.3,7.4,1.3c-0.3-0.6-0.4-1.2-0.7-1.6
	c-1.5-2.9-3-5.7-6.1-7.3c-1-0.5-1.4-1.7-1-2.8c0.4-1.1,1.6-1.7,2.8-1.2c1.1,0.4,2.2,1,3.1,1.8c3,2.5,4.6,6,6.1,9.4
	c1.2,2.9,2.3,5.9,3.7,8.7c1.1,2.2,2.5,4.4,4.9,5.6c4.4,2.3,10.6,0.8,13.7-3.2c2.1-2.7,2.6-6,2.7-9.3c0.1-7.2,0-14.3,0-21.5
	c0-0.4,0-0.8-0.1-1.3c-4.5,0-8.8,0-13.1,0c-5,0-8.9-3.8-9-8.8c0-10.8,0-21.6,0-32.4c0-5.2,4-9,9.1-9.1c3.8,0,7.7,0,11.5,0
	c0.4,0,0.9,0,1.4,0c0-0.5,0.1-0.8,0.1-1.2c0-7.8,0.1-15.6-0.1-23.4c0-1.9-0.4-3.9-1.2-5.6c-1.8-4-5.3-5.9-9.6-6.1
	c-1.4,0-2.8,0.4-4.2,0.8c-2.7,0.8-4.9,2.4-6.5,4.6c-2.5,3.6-3.1,7.7-2.8,12c0,0.3,0.4,0.5,0.6,0.7c1.5,1.2,3.1,2.3,4.6,3.6
	c0.8,0.7,1,1.7,0.3,2.7c-0.8,1.3-2.4,1.5-3.7,0.3c-2.1-2-4.5-3.2-7.3-3.6c-8-1-14.1,4.9-14.8,12.3c-0.3,3.7,0.5,7.1,3.4,9.7
	c1,0.9,2.4,1.4,3.5,2.1c5.1,3.1,6.7,8,6.7,13.6c0,1.6-0.8,2.5-2.2,2.5c-1.4,0-2.1-0.9-2.2-2.5c-0.2-1.8-0.4-3.8-1-5.5
	c-1.8-4.7-6.8-6.7-11.3-4.7c-2.6,1.1-4.2,3.2-5.4,5.6c-2.7,5.4-2.8,11.1-1,16.8c1.4,4.4,4.5,7.2,9.1,8.1c2.3,0.5,4.6,0.8,7,1.3
	c3.3,0.6,6.6,1.3,9.4,3.2c1.3,0.9,1.8,2.1,1.2,3.2c-0.7,1.2-1.9,1.4-3.4,0.7c-1.6-0.7-3.3-1.5-5-1.9C83.4,132.5,79.8,131.9,76,131.2
	z M105,109c0,5.1,0.1,10.1,0,15.2c-0.1,3.1,1.9,5.4,5.3,5.3c9.8-0.1,19.6,0,29.4,0c3.7,0,5.4-1.7,5.4-5.4c0-5.8,0-11.7,0-17.5
	c0-4.3,0-8.5,0-12.8c0-3.4-1.8-5.2-5.2-5.2c-9.9,0-19.8,0-29.7,0c-3.4,0-5.1,1.7-5.1,5.1C105,98.8,105,103.9,105,109z"/>
<path class="st0" d="M126.8,121.8c-0.6-0.5-1.2-0.9-1.7-1.5c-0.4-0.6-0.7-1.4-0.9-2.1c-0.2-1-0.7-1.3-1.7-1.3c-2.2,0.1-4.4,0-6.6,0
	c-0.7,0-1.2,0.2-1.4,1c-0.2,0.7-0.5,1.4-0.8,2.1c-0.6,1.3-1.8,1.9-3,1.4c-1.1-0.5-1.6-1.7-1.1-3c1.5-4,3-8.1,4.5-12.1
	c1-2.7,2-5.4,3-8.1c0.4-1.1,1.1-1.8,2.3-1.8c1.1,0,1.8,0.7,2.2,1.7c1.5,4,3,8,4.5,12c1,2.8,2.1,5.6,3.1,8.4
	C129.7,120.3,128.6,121.7,126.8,121.8z M116.6,112.5c1.9,0,3.6,0,5.5,0c-0.9-2.4-1.8-4.6-2.7-7.2
	C118.3,107.9,117.5,110.1,116.6,112.5z"/>
<path class="st0" d="M138.1,109.1c0,3.3,0,6.6,0,9.9c0,1.7-0.7,2.6-2.1,2.6c-1.4,0-2.3-0.9-2.3-2.6c0-6.6,0-13.2,0-19.8
	c0-1,0.2-1.9,1.2-2.4c0.8-0.5,1.7-0.5,2.3,0.2c0.5,0.5,0.9,1.3,0.9,2.1C138.2,102.4,138.1,105.7,138.1,109.1z"/>
</svg>
