<?xml version="1.0" encoding="utf-8"?>
<!-- Generator: Adobe Illustrator 27.8.1, SVG Export Plug-In . SVG Version: 6.00 Build 0)  -->
<svg version="1.1" id="Layer_1" xmlns="http://www.w3.org/2000/svg" xmlns:xlink="http://www.w3.org/1999/xlink" x="0px" y="0px"
	 viewBox="0 0 246.3 264.7" style="enable-background:new 0 0 246.3 264.7;" xml:space="preserve">
<style type="text/css">
	.st0{fill:#66CCFF;}
</style>
<rect x="56.8" y="178.9" transform="matrix(0.7071 -0.7071 0.7071 0.7071 -111.8234 108.9319)" class="st0" width="37.5" height="21.1"/>
<path class="st0" d="M2.4,242.9l19.4,19.4c3.2,3.2,8.5,3.2,11.8,0l47.6-47.6L50,183.5L2.4,231.1C-0.8,234.3-0.8,239.6,2.4,242.9
	L2.4,242.9z"/>
<path class="st0" d="M198.9,163.6c-1.6,0-3.2-0.4-4.6-1c-1.4,0.6-2.9,1-4.6,1h-6.3c-10.8,13.7-27.5,22.6-46.3,22.6
	c-32.4,0-58.8-26.4-58.8-58.8s26.4-58.8,58.8-58.8c17.9,0,34.1,8.1,44.9,20.8h5.9V57.3c-14.3-10.4-31.8-16.5-50.8-16.5
	c-47.8,0-86.6,38.8-86.6,86.6s39,86.6,86.8,86.6c34.8,0,64.9-20.6,78.6-50.3L198.9,163.6L198.9,163.6z"/>
<g>
	<rect x="97.7" y="131.5" class="st0" width="23.8" height="21.2"/>
	<rect x="131.9" y="115.7" class="st0" width="23.8" height="37"/>
	<rect x="166" y="100.3" class="st0" width="23.8" height="52.4"/>
	<polygon class="st0" points="246.3,38.3 212.1,0 177.9,38.3 199,38.3 199,152.7 225.3,152.7 225.3,38.3 	"/>
</g>
</svg>
