<?xml version="1.0" encoding="UTF-8"?>
<svg id="Layer_1" data-name="Layer 1" xmlns="http://www.w3.org/2000/svg" viewBox="0 0 246.34 264.66">
  <defs>
    <style>
      .cls-1 {
        fill: #3c6ab3;
      }

      .cls-2 {
        fill: #0d2c4c;
      }
    </style>
  </defs>
  <rect class="cls-1" x="56.79" y="178.88" width="37.55" height="21.06" transform="translate(-111.8 108.91) rotate(-45)"/>
  <path class="cls-2" d="m2.44,242.85l19.37,19.37c3.25,3.25,8.51,3.25,11.76,0l47.57-47.57-31.13-31.13L2.44,231.09c-3.25,3.25-3.25,8.51,0,11.76Z"/>
  <path class="cls-2" d="m198.95,163.65c-1.63,0-3.17-.37-4.57-1.01-1.39.64-2.94,1.01-4.57,1.01h-6.27c-10.78,13.73-27.52,22.56-46.28,22.56-32.44,0-58.83-26.39-58.83-58.83s26.38-58.83,58.83-58.83c17.95,0,34.06,8.09,44.85,20.81h5.9v-32.1c-14.27-10.37-31.81-16.47-50.75-16.47-47.75,0-86.59,38.84-86.59,86.59s38.84,86.59,86.59,86.59c34.81,0,64.87-20.65,78.61-50.33h-16.93Z"/>
  <g>
    <rect class="cls-2" x="97.66" y="131.53" width="23.78" height="21.18"/>
    <rect class="cls-2" x="131.85" y="115.72" width="23.78" height="37"/>
    <rect class="cls-2" x="166.04" y="100.32" width="23.78" height="52.4"/>
    <polygon class="cls-1" points="246.34 38.29 212.12 0 177.89 38.29 198.96 38.29 198.96 152.72 225.27 152.72 225.27 38.29 246.34 38.29"/>
  </g>
</svg>