<?xml version="1.0" encoding="UTF-8"?>
<svg id="Layer_1" data-name="Layer 1" xmlns="http://www.w3.org/2000/svg" viewBox="0 0 325.5 287.48">
  <defs>
    <style>
      .cls-1 {
        fill: #3c6ab3;
      }

      .cls-2 {
        fill: #0d2c4c;
      }
    </style>
  </defs>
  <path class="cls-1" d="m213.25,208.67c0,9.38-7.6,16.98-16.98,16.98s-16.99-7.6-16.99-16.98,7.61-16.99,16.99-16.99c.96,0,1.9.08,2.82.24l-7.18,7.18c-1.97,1.97-3.05,4.59-3.05,7.37s1.08,5.4,3.05,7.37c1.97,1.97,4.59,3.05,7.37,3.05s5.4-1.08,7.37-3.05l6.54-6.54c.04.45.06.91.06,1.37Z"/>
  <path class="cls-1" d="m239.24,192.95l-10.49,10.5c.28,1.7.42,3.44.42,5.22,0,18.14-14.76,32.89-32.89,32.89s-32.89-14.76-32.89-32.89,14.76-32.89,32.89-32.89c1.78,0,3.52.14,5.22.42l10.49-10.49c-4.89-1.8-10.19-2.78-15.7-2.78-25.22,0-45.74,20.52-45.74,45.74s20.52,45.74,45.74,45.74,45.74-20.52,45.74-45.74c0-5.51-.98-10.81-2.78-15.71Z"/>
  <path class="cls-1" d="m259.98,172.22l-9.49,9.48c4.06,8.12,6.34,17.29,6.34,26.97,0,33.4-27.17,60.56-60.56,60.56s-60.56-27.17-60.56-60.56,27.17-60.56,60.56-60.56c9.69,0,18.85,2.28,26.97,6.34l9.48-9.48c-10.74-6.18-23.19-9.71-36.45-9.71-40.48,0-73.41,32.93-73.41,73.41s32.93,73.41,73.41,73.41,73.41-32.93,73.41-73.41c0-13.25-3.53-25.7-9.71-36.45Z"/>
  <path class="cls-2" d="m292.15,113.6c-2.51-2.51-6.58-2.51-9.08,0l-88.33,88.33c-2.51,2.51-2.51,6.58,0,9.08,1.25,1.25,2.9,1.88,4.54,1.88s3.29-.63,4.54-1.88l88.33-88.33c2.51-2.51,2.51-6.58,0-9.08Z"/>
  <polygon class="cls-2" points="325.5 108.24 298.59 108.24 298.59 108.24 298.59 81.36 274.98 104.97 275.07 131.79 275.09 131.77 301.89 131.85 325.5 108.24"/>
  <g>
    <circle class="cls-2" cx="66.31" cy="39.81" r="39.81" transform="translate(-8.73 58.55) rotate(-45)"/>
    <path class="cls-2" d="m159.42,107.82v9.52c0,9.68-7.92,17.6-17.6,17.6h-39.15l-1.19,129.02c-.18,13.04-11.17,23.52-24.5,23.52h-4.6v-80.01c0-3.19-2.59-5.77-5.78-5.77-1.59,0-3.03.64-4.08,1.68-1.04,1.06-1.69,2.5-1.69,4.09v80.01h-5.18c-13.34,0-24.32-10.48-24.51-23.52l-1.29-84.76h-8.63c-11.72,0-21.22-10.06-21.22-22.45v-21.44c0-18.53,13.96-39.46,36.19-45.09,2.01,7.05,6.21,18.38,12.58,26.56,1.36,2.33,3.14,4.39,5.24,6.03l-2.44,24.14c-.19,1.85.37,3.7,1.54,5.14l7.79,9.51c1.33,1.62,3.31,2.57,5.41,2.57s4.09-.95,5.42-2.57l7.78-9.51c1.18-1.44,1.74-3.29,1.55-5.14l-2.45-24.23c3.64-2.75,6.43-6.61,7.58-10.99,6.1-9.96,10.18-21.31,10.25-21.49v-.02h45.38c9.68,0,17.6,7.92,17.6,17.6Z"/>
    <polygon class="cls-2" points="77.38 99.2 66.31 88.13 55.25 99.2 62.69 106.63 58.53 147.66 66.31 157.17 74.1 147.66 69.94 106.63 77.38 99.2"/>
  </g>
</svg>