<?xml version="1.0" encoding="utf-8"?>
<!-- Generator: Adobe Illustrator 27.8.1, SVG Export Plug-In . SVG Version: 6.00 Build 0)  -->
<svg version="1.1" id="Layer_1" xmlns="http://www.w3.org/2000/svg" xmlns:xlink="http://www.w3.org/1999/xlink" x="0px" y="0px"
	 viewBox="0 0 325.5 287.5" style="enable-background:new 0 0 325.5 287.5;" xml:space="preserve">
<style type="text/css">
	.st0{fill:#66CCFF;}
</style>
<path class="st0" d="M213.2,208.7c0,9.4-7.6,17-17,17s-17-7.6-17-17s7.6-17,17-17c1,0,1.9,0.1,2.8,0.2l-7.2,7.2
	c-2,2-3.1,4.6-3.1,7.4s1.1,5.4,3.1,7.4s4.6,3.1,7.4,3.1s5.4-1.1,7.4-3.1l6.5-6.5C213.2,207.7,213.2,208.2,213.2,208.7L213.2,208.7z"
	/>
<path class="st0" d="M239.2,192.9l-10.5,10.5c0.3,1.7,0.4,3.4,0.4,5.2c0,18.1-14.8,32.9-32.9,32.9s-32.9-14.8-32.9-32.9
	s14.8-32.9,32.9-32.9c1.8,0,3.5,0.1,5.2,0.4l10.5-10.5c-4.9-1.8-10.2-2.8-15.7-2.8c-25.2,0-45.7,20.5-45.7,45.7s20.5,45.7,45.7,45.7
	s45.7-20.5,45.7-45.7C242,203.2,241.1,197.9,239.2,192.9L239.2,192.9z"/>
<path class="st0" d="M260,172.2l-9.5,9.5c4.1,8.1,6.3,17.3,6.3,27c0,33.4-27.2,60.6-60.6,60.6s-60.6-27.2-60.6-60.6
	s27.2-60.6,60.6-60.6c9.7,0,18.9,2.3,27,6.3l9.5-9.5c-10.7-6.2-23.2-9.7-36.4-9.7c-40.5,0-73.4,32.9-73.4,73.4s32.9,73.4,73.4,73.4
	s73.4-32.9,73.4-73.4C269.7,195.4,266.2,183,260,172.2L260,172.2z"/>
<path class="st0" d="M292.1,113.6c-2.5-2.5-6.6-2.5-9.1,0l-88.3,88.3c-2.5,2.5-2.5,6.6,0,9.1c1.2,1.2,2.9,1.9,4.5,1.9
	s3.3-0.6,4.5-1.9l88.3-88.3C294.7,120.2,294.7,116.1,292.1,113.6z"/>
<polygon class="st0" points="325.5,108.2 298.6,108.2 298.6,108.2 298.6,81.4 275,105 275.1,131.8 275.1,131.8 301.9,131.9 "/>
<g>
	<circle class="st0" cx="66.3" cy="39.8" r="39.8"/>
	<path class="st0" d="M159.4,107.8v9.5c0,9.7-7.9,17.6-17.6,17.6h-39.2l-1.2,129c-0.2,13-11.2,23.5-24.5,23.5h-4.6v-80
		c0-3.2-2.6-5.8-5.8-5.8c-1.6,0-3,0.6-4.1,1.7c-1,1.1-1.7,2.5-1.7,4.1v80h-5.2c-13.3,0-24.3-10.5-24.5-23.5l-1.3-84.8h-8.6
		C9.5,179.2,0,169.1,0,156.7v-21.4c0-18.5,14-39.5,36.2-45.1c2,7.1,6.2,18.4,12.6,26.6c1.4,2.3,3.1,4.4,5.2,6l-2.4,24.1
		c-0.2,1.9,0.4,3.7,1.5,5.1l7.8,9.5c1.3,1.6,3.3,2.6,5.4,2.6s4.1-0.9,5.4-2.6l7.8-9.5c1.2-1.4,1.7-3.3,1.6-5.1l-2.4-24.2
		c3.6-2.8,6.4-6.6,7.6-11c6.1-10,10.2-21.3,10.2-21.5v0h45.4C151.5,90.2,159.4,98.1,159.4,107.8z"/>
	<polygon class="st0" points="77.4,99.2 66.3,88.1 55.2,99.2 62.7,106.6 58.5,147.7 66.3,157.2 74.1,147.7 69.9,106.6 	"/>
</g>
</svg>
