<?xml version="1.0" encoding="utf-8"?>
<!-- Generator: Adobe Illustrator 27.8.1, SVG Export Plug-In . SVG Version: 6.00 Build 0)  -->
<svg version="1.1" id="Layer_1" xmlns="http://www.w3.org/2000/svg" xmlns:xlink="http://www.w3.org/1999/xlink" x="0px" y="0px"
	 viewBox="0 0 293.9 200.5" style="enable-background:new 0 0 293.9 200.5;" xml:space="preserve">
<style type="text/css">
	.st0{fill:#66CCFF;}
</style>
<path class="st0" d="M293.9,141.6V164c0,13-9.9,23.5-22.2,23.5h-58.9c-0.9-4.4-3.1-8.3-6.3-11.6l-44.6-44.6
	c5-8.1,8.7-17.1,11.1-26.6c5.6-4.8,12.3-8.5,20-10.4c2.3,7.9,7.2,21.1,14.7,29.7l0,0.2l-3.9,38.1c-0.3,3.1,0.6,6.3,2.6,8.7l8.9,10.9
	c2.3,2.8,5.6,4.4,9.2,4.4s6.9-1.6,9.2-4.4l8.9-10.9c2-2.4,3-5.6,2.6-8.7l-3.9-38.1l0-0.2c7.5-8.6,12.4-21.7,14.6-29.6
	C279.3,100.3,293.9,122.2,293.9,141.6z"/>
<circle class="st0" cx="224.5" cy="41.7" r="41.7"/>
<path class="st0" d="M42.3,86.3c0,24,19.4,43.4,43.4,43.4s43.4-19.4,43.4-43.4s-19.4-43.4-43.4-43.4v43.4
	C85.7,86.3,42.3,86.3,42.3,86.3z"/>
<path class="st0" d="M32.3,76.2h43.4V32.8C51.7,32.8,32.3,52.2,32.3,76.2z"/>
<g>
	<path class="st0" d="M80,161.8c-44.1,0-80-35.9-80-80s35.9-80,80-80s80,35.9,80,80S124.2,161.8,80,161.8z M80,17.4
		c-35.5,0-64.3,28.9-64.3,64.3s28.9,64.3,64.3,64.3s64.3-28.9,64.3-64.3S115.5,17.4,80,17.4z"/>
	<path class="st0" d="M189.8,200.5c-2,0-4-0.8-5.6-2.3l-59.1-59.1c-3.1-3.1-3.1-8,0-11.1c3.1-3.1,8-3.1,11.1,0l59.1,59.1
		c3.1,3.1,3.1,8,0,11.1C193.8,199.7,191.8,200.5,189.8,200.5L189.8,200.5z"/>
</g>
<polygon class="st0" points="237.2,108.2 224.6,95.5 211.9,108.2 220.4,116.7 215.7,163.6 224.6,174.4 233.5,163.6 228.7,116.7 "/>
</svg>
