<?xml version="1.0" encoding="UTF-8"?>
<svg id="Layer_1" data-name="Layer 1" xmlns="http://www.w3.org/2000/svg" viewBox="0 0 293.93 200.48">
  <defs>
    <style>
      .cls-1 {
        fill: #3c6ab3;
      }

      .cls-2 {
        fill: #0d2c4c;
      }
    </style>
  </defs>
  <path class="cls-2" d="m293.93,141.59v22.43c0,12.98-9.94,23.49-22.21,23.49h-58.95c-.94-4.35-3.12-8.34-6.34-11.56l-44.55-44.55c4.96-8.14,8.74-17.07,11.1-26.55,5.57-4.78,12.33-8.49,20.03-10.44,2.26,7.93,7.18,21.06,14.73,29.69l-.02.16-3.85,38.09c-.32,3.15.62,6.29,2.62,8.73l8.89,10.87c2.26,2.76,5.65,4.36,9.21,4.36s6.95-1.6,9.2-4.36l8.89-10.87c2.01-2.44,2.96-5.58,2.63-8.73l-3.86-38.13-.02-.21c7.5-8.63,12.39-21.7,14.64-29.6,23.25,5.89,37.86,27.79,37.86,47.18Z"/>
  <circle class="cls-2" cx="224.54" cy="41.66" r="41.66" transform="translate(-3.56 52.7) rotate(-13.28)"/>
  <path class="cls-2" d="m42.3,86.26c0,23.96,19.42,43.38,43.38,43.38s43.38-19.42,43.38-43.38-19.42-43.38-43.38-43.38v43.38h-43.38Z"/>
  <path class="cls-1" d="m32.26,76.21h43.38v-43.38c-23.96,0-43.38,19.42-43.38,43.38Z"/>
  <g>
    <path class="cls-1" d="m80.04,161.78C35.91,161.78,0,125.87,0,81.74S35.91,1.7,80.04,1.7s80.04,35.91,80.04,80.04-35.91,80.04-80.04,80.04Zm0-144.37c-35.47,0-64.33,28.86-64.33,64.33s28.86,64.33,64.33,64.33,64.33-28.86,64.33-64.33S115.51,17.41,80.04,17.41Z"/>
    <path class="cls-1" d="m189.76,200.48c-2.01,0-4.02-.77-5.55-2.3l-59.08-59.08c-3.07-3.07-3.07-8.04,0-11.11,3.07-3.07,8.04-3.07,11.11,0l59.08,59.08c3.07,3.07,3.07,8.04,0,11.11-1.53,1.53-3.54,2.3-5.55,2.3Z"/>
  </g>
  <polygon class="cls-2" points="237.23 108.19 224.59 95.54 211.95 108.19 220.44 116.68 215.7 163.56 224.59 174.43 233.48 163.56 228.74 116.68 237.23 108.19"/>
</svg>