<?xml version="1.0" encoding="UTF-8"?>
<svg id="Layer_1" data-name="Layer 1" xmlns="http://www.w3.org/2000/svg" viewBox="0 0 268.94 255.83">
  <defs>
    <style>
      .cls-1 {
        fill: #fff;
      }

      .cls-2 {
        fill: #3c6ab3;
      }

      .cls-3 {
        fill: #bed5e7;
      }

      .cls-4 {
        fill: #0d2c4c;
      }
    </style>
  </defs>
  <path class="cls-3" d="m256.54,233.12c-5.45,0-9.89-4.44-9.89-9.89s4.44-9.89,9.89-9.89,9.89,4.44,9.89,9.89-4.44,9.89-9.89,9.89Zm0-17.17c-4.02,0-7.28,3.27-7.28,7.28s3.27,7.28,7.28,7.28,7.28-3.27,7.28-7.28-3.27-7.28-7.28-7.28Z"/>
  <path class="cls-2" d="m84.55,232.77l11.5-11.5L4.76,129.99h0c-6.35,6.35-6.35,16.65,0,23l79.78,79.78Z"/>
  <path class="cls-2" d="m101.21,216.1l11.5-11.5L32.93,124.82c-6.35-6.35-16.65-6.35-23,0h0l91.28,91.28Z"/>
  <polygon class="cls-2" points="135.92 255.83 91.87 240.09 120.18 211.78 135.92 255.83"/>
  <g>
    <path class="cls-4" d="m25.31,199.19v13.46c0,19.62,15.9,35.51,35.51,35.51h14.13c-1.15-.72-2.24-1.57-3.24-2.57l-46.41-46.4Z"/>
    <path class="cls-4" d="m122.58,55.66c-.66,5.9-.84,12.12-.56,18.73h-55.95c-12.16,0-22.01,9.86-22.01,22.01v13.6l-5.34-5.34c-3.68-3.69-8.35-6.04-13.4-6.81v-6.68c0-19.61,15.89-35.51,35.51-35.51h61.75Z"/>
    <path class="cls-4" d="m268.94,91.17v121.48c0,19.61-15.9,35.51-35.5,35.51h-80.99l-6.7-18.74h82.44c12.16,0,22.02-9.85,22.02-22.01v-14.15h.01v-70.15h-.01s0-26.71,0-26.71c0-12.15-9.86-22.01-22.02-22.01h-9.58c.29-6.61.1-12.83-.56-18.73h15.39c19.6,0,35.5,15.9,35.5,35.51Z"/>
  </g>
  <g>
    <path class="cls-2" d="m169.62,38.05c-8.97,0-17.48-1.92-25.17-5.36,3.31-7.29,7.69-14.11,12.9-20.23,3.97-4.67,8.95-8.11,13.11-12.46,4.16,4.35,9.13,7.78,13.11,12.46,5.06,5.95,9.33,12.54,12.61,19.59-8.04,3.85-17.05,6.01-26.56,6.01Z"/>
    <path class="cls-4" d="m193.74,129.71s-5.65,5.08-23.41,6.06h0s-.02,0-.02,0h0c-17.76-.99-23.41-6.07-23.41-6.07-5.82-25.56-13.65-54.14-8.14-80.41.75-3.58,1.76-7.09,2.99-10.52,8.77,3.92,18.13,5.91,27.81,5.91,10.18,0,19.98-2.19,29.12-6.51,1.34,3.61,2.41,7.33,3.21,11.12,5.51,26.27-2.32,54.85-8.14,80.41Z"/>
    <g>
      <path class="cls-4" d="m140.25,88.45s-27.22,13.96-21.82,49.12l33.02-8.34-11.2-40.78Z"/>
      <path class="cls-4" d="m200.38,88.45s27.22,13.96,21.82,49.12l-33.02-8.34,11.2-40.78Z"/>
    </g>
    <circle class="cls-1" cx="170.31" cy="69.99" r="13.93"/>
    <g>
      <path class="cls-2" d="m170.31,171.93h0c-2.94,0-5.34-2.4-5.34-5.34v-19.47c0-2.94,2.4-5.34,5.34-5.34h0c2.94,0,5.34,2.4,5.34,5.34v19.47c0,2.94-2.4,5.34-5.34,5.34Z"/>
      <rect class="cls-2" x="144.72" y="154.34" width="10.68" height="30.15" rx="5.34" ry="5.34"/>
      <path class="cls-2" d="m190.57,183.86h0c-2.94,0-5.34-2.4-5.34-5.34v-19.47c0-2.94,2.4-5.34,5.34-5.34h0c2.94,0,5.34,2.4,5.34,5.34v19.47c0,2.94-2.4,5.34-5.34,5.34Z"/>
    </g>
  </g>
</svg>