<?xml version="1.0" encoding="utf-8"?>
<!-- Generator: Adobe Illustrator 27.8.1, SVG Export Plug-In . SVG Version: 6.00 Build 0)  -->
<svg version="1.1" id="Layer_1" xmlns="http://www.w3.org/2000/svg" xmlns:xlink="http://www.w3.org/1999/xlink" x="0px" y="0px"
	 viewBox="0 0 268.9 255.8" style="enable-background:new 0 0 268.9 255.8;" xml:space="preserve">
<style type="text/css">
	.st0{fill:#66CCFF;}
</style>
<path class="st0" d="M256.5,233.1c-5.4,0-9.9-4.4-9.9-9.9s4.4-9.9,9.9-9.9c5.4,0,9.9,4.4,9.9,9.9S262,233.1,256.5,233.1z
	 M256.5,215.9c-4,0-7.3,3.3-7.3,7.3s3.3,7.3,7.3,7.3c4,0,7.3-3.3,7.3-7.3S260.6,215.9,256.5,215.9z"/>
<path class="st0" d="M84.6,232.8l11.5-11.5L4.8,130l0,0c-6.3,6.4-6.3,16.6,0,23L84.6,232.8L84.6,232.8z"/>
<path class="st0" d="M101.2,216.1l11.5-11.5l-79.8-79.8c-6.4-6.3-16.6-6.3-23,0l0,0L101.2,216.1z"/>
<polygon class="st0" points="135.9,255.8 91.9,240.1 120.2,211.8 "/>
<g>
	<path class="st0" d="M25.3,199.2v13.5c0,19.6,15.9,35.5,35.5,35.5h14.1c-1.2-0.7-2.2-1.6-3.2-2.6L25.3,199.2L25.3,199.2z"/>
	<path class="st0" d="M122.6,55.7c-0.7,5.9-0.8,12.1-0.6,18.7H66.1c-12.2,0-22,9.9-22,22V110l-5.3-5.3c-3.7-3.7-8.4-6-13.4-6.8v-6.7
		c0-19.6,15.9-35.5,35.5-35.5C60.8,55.7,122.6,55.7,122.6,55.7z"/>
	<path class="st0" d="M268.9,91.2v121.5c0,19.6-15.9,35.5-35.5,35.5h-81l-6.7-18.7h82.4c12.2,0,22-9.9,22-22v-14.1h0v-70.2h0V96.4
		c0-12.2-9.9-22-22-22h-9.6c0.3-6.6,0.1-12.8-0.6-18.7h15.4C253,55.7,268.9,71.6,268.9,91.2z"/>
</g>
<g>
	<path class="st0" d="M169.6,38c-9,0-17.5-1.9-25.2-5.4c3.3-7.3,7.7-14.1,12.9-20.2c4-4.7,8.9-8.1,13.1-12.5
		c4.2,4.3,9.1,7.8,13.1,12.5c5.1,6,9.3,12.5,12.6,19.6C188.1,35.9,179.1,38.1,169.6,38L169.6,38z"/>
	<path class="st0" d="M193.7,129.7c0,0-5.6,5.1-23.4,6.1l0,0h0l0,0c-17.8-1-23.4-6.1-23.4-6.1c-5.8-25.6-13.6-54.1-8.1-80.4
		c0.8-3.6,1.8-7.1,3-10.5c8.8,3.9,18.1,5.9,27.8,5.9c10.2,0,20-2.2,29.1-6.5c1.3,3.6,2.4,7.3,3.2,11.1
		C207.4,75.6,199.6,104.1,193.7,129.7L193.7,129.7z"/>
	<g>
		<path class="st0" d="M140.2,88.4c0,0-27.2,14-21.8,49.1l33-8.3L140.2,88.4z"/>
		<path class="st0" d="M200.4,88.4c0,0,27.2,14,21.8,49.1l-33-8.3L200.4,88.4z"/>
	</g>
	<circle class="st0" cx="170.3" cy="70" r="13.9"/>
	<g>
		<path class="st0" d="M170.3,171.9L170.3,171.9c-2.9,0-5.3-2.4-5.3-5.3v-19.5c0-2.9,2.4-5.3,5.3-5.3l0,0c2.9,0,5.3,2.4,5.3,5.3
			v19.5C175.6,169.5,173.2,171.9,170.3,171.9z"/>
		<path class="st0" d="M150.1,154.3L150.1,154.3c2.9,0,5.3,2.4,5.3,5.3v19.5c0,2.9-2.4,5.3-5.3,5.3l0,0c-2.9,0-5.3-2.4-5.3-5.3
			v-19.5C144.7,156.7,147.1,154.3,150.1,154.3z"/>
		<path class="st0" d="M190.6,183.9L190.6,183.9c-2.9,0-5.3-2.4-5.3-5.3v-19.5c0-2.9,2.4-5.3,5.3-5.3l0,0c2.9,0,5.3,2.4,5.3,5.3
			v19.5C195.9,181.5,193.5,183.9,190.6,183.9z"/>
	</g>
</g>
</svg>
