<?xml version="1.0" encoding="UTF-8"?>
<svg id="Layer_1" data-name="Layer 1" xmlns="http://www.w3.org/2000/svg" viewBox="0 0 199.21 280.16">
  <defs>
    <style>
      .cls-1 {
        fill: #fff;
      }

      .cls-2 {
        fill: #3c6ab3;
      }

      .cls-3 {
        fill: #0d2c4c;
      }
    </style>
  </defs>
  <path class="cls-2" d="m48.6,98.87c-.06,0-.12,0-.17-.02.1,0,.19.02.29.02h-.12Z"/>
  <path class="cls-2" d="m92.07,78.81s-.03,0-.04,0c.04,0,.09,0,.13,0-.04,0-.06.02-.09.02Z"/>
  <path class="cls-3" d="m171.64,93.68l-6.53,22.64c-.55,1.92-2.56,3.03-4.49,2.47l-14.45-4.17c-2.17,3.42-4.74,6.65-7.74,9.62-3.59,3.56-7.54,6.51-11.75,8.87l3.4,14.65c.46,1.95-.76,3.89-2.7,4.35l-22.95,5.33c-1.95.46-3.9-.76-4.35-2.7l-3.41-14.66c-8.94-.49-17.76-3.17-25.64-8l-11.14,10.11c-1.48,1.35-3.77,1.23-5.12-.25l-15.85-17.44c-1.35-1.48-1.23-3.77.25-5.12l10.87-9.88,15.67-1.15c7.26-.54,12.73-6.87,12.19-14.14l-.22-3.03c1.37-.79,2.69-1.66,3.97-2.59.66-.47,1.31-.97,1.95-1.49.76,5.37,4.15,10.27,9.44,12.7,8.28,3.82,18.09.21,21.91-8.08,3.46-7.51.81-16.27-5.88-20.69l1.79-3.83c1.48-3.2,1.63-6.78.43-10.1-1.21-3.3-3.62-5.94-6.78-7.43l-2.91-1.37c-.04-2.53-.29-5.04-.74-7.53l2.43-1.75c2.92-2.12,4.78-5.06,5.45-8.2,6.02.98,11.83,2.93,17.32,5.96l10.69-10.59c1.42-1.41,4.25-1.29,5.66.13l16.58,16.74c1.41,1.42.87,3.61-.55,5.02l-10.69,10.59c4.55,8.26,6.78,17.22,6.8,26.19l14.62,4.33c1.92.55,3.03,2.56,2.47,4.49Z"/>
  <path class="cls-1" d="m92.07,78.81s-.03,0-.04,0c.04,0,.09,0,.13,0-.04,0-.06.02-.09.02Z"/>
  <path class="cls-1" d="m114.97,91.73c-3.82,8.28-13.63,11.9-21.91,8.08-5.29-2.44-8.69-7.33-9.44-12.7.04-.04.09-.07.13-.11l2.75,1.29c1.76.81,3.63,1.23,5.57,1.23,5.12,0,9.81-3,11.97-7.64l5.04-10.84c6.7,4.42,9.35,13.18,5.88,20.69Z"/>
  <g>
    <path class="cls-2" d="m67.23,95l-.76-10.3c3.1-1.16,6.1-2.74,8.91-4.78,2.35-1.7,4.43-3.62,6.27-5.71l9.37,4.36c1.25.58,2.73.04,3.31-1.21l6.83-14.67c.58-1.25.04-2.73-1.21-3.31l-9.46-4.49c.93-6.09.37-12.41-1.84-18.49l8.37-6.06c1.11-.81,1.71-2.23.91-3.35l-9.49-13.11c-.81-1.11-2.71-1.49-3.83-.69l-8.37,6.06c-4.1-3.18-8.68-5.34-13.59-6.61l-.27-10.26c-.04-1.37-1.17-2.42-2.54-2.38l-16.17.5c-1.37.04-2.45,1.2-2.41,2.57l.31,10.33c-3.65,1.19-7.18,2.95-10.46,5.32-1.89,1.36-3.6,2.88-5.16,4.5l-9.17-4.76c-1.22-.63-2.72-.16-3.36,1.06l-7.46,14.36c-.63,1.22-.16,2.72,1.06,3.36l9.18,4.77c-1.19,6.06-.91,12.39.95,18.42l-8.63,5.69c-1.15.76-1.47,2.3-.71,3.45l8.91,13.51c.76,1.15,2.3,1.47,3.45.71l8.63-5.69c4.84,4.11,10.55,6.86,16.56,8.14l.76,10.31c.1,1.37,1.3,2.4,2.67,2.3l16.14-1.19c1.37-.1,2.4-1.3,2.3-2.67Z"/>
    <circle class="cls-1" cx="53.45" cy="49.1" r="17.66" transform="translate(-18.96 44.12) rotate(-38.64)"/>
  </g>
  <path class="cls-3" d="m166.84,243.61h-52.05v-46.03l36.67-42.57c3.24-3.24,10.34-3.44,13.58-.2l.78.78c3.24,3.24,3.35,10.6.1,13.84l-23.88,31.28c-1.96,2.57-1.56,6.23.91,8.32h0c2.67,2.26,6.68,1.8,8.78-1l24.1-32.23c2.99-4,4.59-8.86,4.55-13.86v-.25c-.05-5.55-2.11-10.89-5.81-15.03l-2.81-3.15c-1.85-2.07-1.85-5.2,0-7.26,0,0,4.15-6.49,8.29-13.42,3.83-6.42,7.58-13.3,9.87-13.53,5.48-.54,9.29,3.8,9.29,9.18l-.17,49.39-.1,24.75c-.03,8.03-2.81,15.8-7.87,22.03-9.53,11.75-24.23,28.95-24.23,28.95Z"/>
  <rect class="cls-2" x="114.24" y="253.22" width="56.27" height="26.93"/>
  <path class="cls-3" d="m157.83,258.5c3.04,0,5.5,2.46,5.5,5.5s-2.46,5.5-5.5,5.5-5.5-2.46-5.5-5.5,2.46-5.5,5.5-5.5Z"/>
  <path class="cls-3" d="m32.37,243.61h52.05v-46.03l-36.67-42.57c-3.24-3.24-10.34-3.44-13.58-.2l-.78.78c-3.24,3.24-3.35,10.6-.1,13.84l23.88,31.28c1.96,2.57,1.56,6.23-.91,8.32h0c-2.67,2.26-6.68,1.8-8.78-1l-24.1-32.23c-2.99-4-4.59-8.86-4.55-13.86v-.25c.05-5.55,2.11-10.89,5.81-15.03l2.81-3.15c1.85-2.07,1.85-5.2,0-7.26,0,0-4.15-6.49-8.29-13.42-3.83-6.42-7.58-13.3-9.87-13.53C3.81,108.77,0,113.11,0,118.49l.17,49.39.1,24.75c.03,8.03,2.81,15.8,7.87,22.03,9.53,11.75,24.23,28.95,24.23,28.95Z"/>
  <rect class="cls-2" x="28.7" y="253.22" width="56.27" height="26.93"/>
  <path class="cls-3" d="m41.38,258.5c-3.04,0-5.5,2.46-5.5,5.5s2.46,5.5,5.5,5.5,5.5-2.46,5.5-5.5-2.46-5.5-5.5-5.5Z"/>
</svg>