<?xml version="1.0" encoding="utf-8"?>
<!-- Generator: Adobe Illustrator 27.8.1, SVG Export Plug-In . SVG Version: 6.00 Build 0)  -->
<svg version="1.1" id="Layer_1" xmlns="http://www.w3.org/2000/svg" xmlns:xlink="http://www.w3.org/1999/xlink" x="0px" y="0px"
	 viewBox="0 0 299.1 291.4" style="enable-background:new 0 0 299.1 291.4;" xml:space="preserve">
<style type="text/css">
	.st0{fill:#66CCFF;}
</style>
<path class="st0" d="M273.5,227.6c-5.5,0-9.9-4.4-9.9-9.9s4.4-9.9,9.9-9.9s9.9,4.4,9.9,9.9S279,227.6,273.5,227.6z M273.5,210.4
	c-4,0-7.3,3.3-7.3,7.3s3.3,7.3,7.3,7.3s7.3-3.3,7.3-7.3S277.5,210.4,273.5,210.4z"/>
<path class="st0" d="M88.4,88c-18.4,11.2-33,27.7-42.3,47.7c-3.7,8.1-6.4,16.4-8,24.8c2.3-0.4,4.6-0.7,7-0.7c3.7,0,7.3,0.6,10.7,1.6
	c1.4-6.2,3.5-12.4,6.2-18.4c6.9-15,17.5-27.7,30.7-36.9C89.2,100.8,87.6,94.4,88.4,88z M181.3,273.3
	C181.3,273.3,181.4,273.3,181.3,273.3c0.1,0,0.2,0,0.2,0H181.3L181.3,273.3z M160.8,272.8c-17.6,2.9-36.2,0.8-53.5-7.2
	c-1.5-0.7-3-1.4-4.5-2.2c0.1,6.1-1.9,12-5.7,16.7c0.9,0.5,1.9,0.9,2.8,1.4c14.8,6.8,30.4,10.1,45.8,10.1c8.2,0,16.3-0.9,24.2-2.7
	v-6.9c-0.2-0.2-0.4-0.4-0.6-0.6L160.8,272.8z M203.4,88c0.8,6.5-0.7,12.9-4.3,18.1c6.7,4.7,12.6,10.2,17.7,16.3h18.5
	c1.1,0,2.2,0.1,3.3,0.3C229.8,108.9,218,96.9,203.4,88z"/>
<g>
	<circle class="st0" cx="145.9" cy="24.5" r="24.5"/>
	<path class="st0" d="M188.7,75.8l2.1,13.3c1.3,8.3-4.4,15.4-12.9,15.4h-64c-8.5,0-14.2-7.1-12.9-15.4l2.1-13.3
		c1.7-10.5,9.2-19,18.5-22.8c5.5,6,14.3,9.9,24.3,9.9s18.8-3.9,24.3-9.9C179.6,56.8,187.1,65.2,188.7,75.8L188.7,75.8z"/>
</g>
<g>
	<circle class="st0" cx="45.1" cy="196.8" r="24.5"/>
	<path class="st0" d="M87.9,248.1l2.1,13.3c1.3,8.3-4.4,15.4-12.9,15.4h-64c-8.5,0-14.2-7.1-12.9-15.4l2.1-13.3
		c1.7-10.5,9.2-18.9,18.5-22.8c5.5,6,14.3,9.9,24.3,9.9s18.8-3.9,24.3-9.9C78.7,229.2,86.2,237.6,87.9,248.1L87.9,248.1z"/>
</g>
<path class="st0" d="M299,198.7c-0.2-2.1-2-3.7-4.1-3.7h-16.2c-1.2-4.2-2.9-8.3-5-12l0,0c0-0.1-0.1-0.1-0.1-0.2l0.4-0.4l11.1-11.1
	c1.6-1.6,1.6-4.2,0-5.8l-16-16l-0.2-0.2c0,0-0.1,0-0.1-0.1c-0.8-0.8-1.8-1.1-2.8-1.1c0,0,0,0-0.1,0c0,0,0,0,0,0c-1,0-2,0.4-2.8,1.1
	c0,0-0.1,0-0.1,0.1l-11.4,11.4c-1.3-0.7-2.6-1.4-3.9-2c-0.9-0.4-1.8-0.8-2.7-1.1c-1.8-0.7-3.7-1.4-5.6-1.9v-16.2
	c0-1.2-0.5-2.2-1.3-3c-0.7-0.7-1.7-1.1-2.8-1.1h-23.2c-1.1,0-2.1,0.4-2.8,1.1c-0.8,0.8-1.3,1.8-1.3,3v16.2c-1.9,0.5-3.8,1.2-5.6,1.9
	c-0.8,0.3-1.6,0.7-2.5,1.1c-1.4,0.6-2.8,1.3-4.1,2.1l-11.4-11.4c0,0-0.1,0-0.1-0.1c-0.8-0.8-1.8-1.1-2.9-1.1c0,0,0,0,0,0
	c0,0,0,0,0,0c-1,0-2.1,0.4-2.9,1.1c0,0-0.1,0-0.1,0.1l-0.2,0.2l-16,16c-1.6,1.6-1.6,4.2,0,5.8l11.3,11.3l0.2,0.2
	c0,0.1-0.1,0.1-0.1,0.2l0,0c-2.1,3.8-3.8,7.8-5,12h-16.2c-2.1,0-3.9,1.6-4.1,3.7c0,0.1,0,0.3,0,0.4v23c0,0.1,0,0.3,0,0.4
	c0.1,1,0.6,2,1.3,2.6c0.7,0.7,1.7,1.1,2.8,1.1h16.2c0.3,1.1,0.6,2.1,1,3.1c0,0,0,0.1,0,0.1c0.2,0.5,0.4,1,0.5,1.5c0,0,0,0.1,0,0.1
	c0.6,1.5,1.2,3,1.9,4.5c0.1,0.1,0.1,0.2,0.1,0.3c0.1,0.3,0.2,0.5,0.4,0.8l0,0c0.3,0.6,0.7,1.3,1,1.9L162.2,250
	c-1.6,1.6-1.6,4.2,0,5.8l16.3,16.3c1.2,1.2,3,1.5,4.5,0.9l0,0c0.2-0.1,0.4-0.2,0.5-0.3c0.1,0,0.1-0.1,0.2-0.1
	c0.2-0.1,0.4-0.3,0.6-0.5l10.6-10.6l0.8-0.8c1,0.6,2,1.1,3.1,1.6l0,0l0,0c0.2,0.1,0.3,0.1,0.5,0.2c0.4,0.2,0.9,0.4,1.4,0.6
	c0.2,0.1,0.4,0.2,0.7,0.3c0.6,0.2,1.2,0.5,1.8,0.7c0.1,0,0.1,0,0.1,0.1c0.1,0,0.2,0.1,0.4,0.1c0.3,0.1,0.6,0.2,0.9,0.3
	c0.3,0.1,0.5,0.2,0.8,0.3c0.2,0.1,0.4,0.1,0.7,0.2c0.6,0.2,1.3,0.4,1.9,0.6c0,0,0,0,0.1,0c0,0,0,0,0.1,0v16.2c0,1.2,0.5,2.2,1.3,3
	c0.7,0.7,1.7,1.1,2.8,1.1h23.2c1.1,0,2.1-0.4,2.8-1.1c0.8-0.8,1.3-1.8,1.3-3v-16.2c0,0,0,0,0.1,0c0,0,0,0,0.1,0
	c0.6-0.2,1.3-0.4,1.9-0.6c0.2-0.1,0.4-0.1,0.7-0.2c0.3-0.1,0.5-0.2,0.8-0.3c0.3-0.1,0.6-0.2,0.9-0.3c0.1,0,0.2-0.1,0.4-0.1
	c0.1,0,0.1,0,0.1-0.1c0.6-0.2,1.2-0.5,1.8-0.7c0.2-0.1,0.4-0.2,0.7-0.3c0.5-0.2,0.9-0.4,1.4-0.6c0.2-0.1,0.3-0.1,0.5-0.2l0,0l0,0
	c1-0.5,2.1-1,3.1-1.6l0.8,0.8L263,272c0.2,0.2,0.4,0.3,0.6,0.5c0.1,0,0.1,0.1,0.2,0.1c0.2,0.1,0.4,0.2,0.5,0.3l0,0
	c1.5,0.6,3.3,0.3,4.5-0.9l16.3-16.3c1.6-1.6,1.6-4.2,0-5.8l-11.5-11.5c0.4-0.6,0.7-1.3,1-1.9l0,0c0.1-0.2,0.2-0.5,0.4-0.8
	c0-0.1,0.1-0.2,0.1-0.3c0.7-1.4,1.4-2.9,1.9-4.5c0,0,0-0.1,0-0.1c0.2-0.5,0.4-1,0.5-1.5c0,0,0-0.1,0-0.1c0.4-1,0.7-2.1,1-3.1H295
	c1.1,0,2-0.4,2.8-1.1c0.7-0.7,1.2-1.6,1.3-2.6c0-0.1,0-0.3,0-0.4v-23C299.1,199,299.1,198.9,299,198.7L299,198.7z M251.5,211.6
	c0,0.1,0,0.1,0,0.2c0,0.4-0.1,0.7-0.1,1.1c0,0,0,0,0,0c0,0.1,0,0.2,0,0.3c0,0.3-0.1,0.7-0.1,1c0,0.1,0,0.2-0.1,0.4
	c-0.1,0.3-0.1,0.6-0.2,1c0,0,0,0,0,0c0,0.1,0,0.2-0.1,0.3c-0.1,0.4-0.2,0.7-0.2,1.1c0,0.1,0,0.1,0,0.2c0,0,0,0,0,0
	c-0.1,0.4-0.2,0.9-0.4,1.3c0,0,0,0.1,0,0.1c-2.9,9.1-10.3,16.2-19.6,18.6c-0.1,0-0.1,0-0.2,0.1c-0.3,0.1-0.6,0.2-1,0.2c0,0,0,0,0,0
	c-0.1,0-0.3,0.1-0.4,0.1c-0.3,0.1-0.6,0.1-0.9,0.2c0,0,0,0,0,0l0,0c-0.1,0-0.2,0-0.3,0.1c-0.4,0.1-0.8,0.1-1.1,0.1c0,0-0.1,0-0.1,0
	h0c-0.1,0-0.2,0-0.3,0c-0.3,0-0.6,0.1-1,0.1c-0.1,0-0.1,0-0.2,0c-0.1,0-0.1,0-0.2,0c-0.4,0-0.9,0-1.3,0s-0.9,0-1.3,0
	c-0.1,0-0.1,0-0.2,0c-0.1,0-0.1,0-0.2,0c-0.3,0-0.7-0.1-1-0.1c-0.1,0-0.2,0-0.3,0h0c0,0-0.1,0-0.1,0c-0.4,0-0.8-0.1-1.1-0.1
	c-0.1,0-0.2,0-0.3-0.1l0,0c0,0,0,0,0,0c-0.3-0.1-0.6-0.1-0.9-0.2c-0.1,0-0.3-0.1-0.4-0.1c0,0,0,0,0,0c-0.3-0.1-0.7-0.1-1-0.2
	c-0.1,0-0.1,0-0.2-0.1c-9.3-2.4-16.7-9.5-19.6-18.6c0,0,0-0.1,0-0.1c-0.1-0.4-0.2-0.9-0.4-1.3c0,0,0,0,0,0c0-0.1,0-0.1,0-0.2
	c-0.1-0.4-0.2-0.7-0.2-1.1c0-0.1,0-0.2-0.1-0.3c0,0,0,0,0,0c-0.1-0.3-0.1-0.6-0.2-1c0-0.1,0-0.2-0.1-0.4c-0.1-0.3-0.1-0.7-0.1-1
	c0-0.1,0-0.2,0-0.3c0,0,0,0,0,0c0-0.4-0.1-0.7-0.1-1.1c0-0.1,0-0.1,0-0.2c0-0.5,0-0.9,0-1.4c0-7.4,2.9-14.1,7.6-19.1
	c4.8-5.1,11.4-8.4,18.9-8.8c0.5,0,0.9,0,1.4,0s1,0,1.4,0c7.5,0.4,14.2,3.7,19,8.9c4.6,5,7.4,11.6,7.4,18.9
	C251.6,210.6,251.6,211.1,251.5,211.6L251.5,211.6z"/>
<circle class="st0" cx="223.7" cy="210.2" r="14.9"/>
</svg>
