<?xml version="1.0" encoding="UTF-8"?>
<svg id="Layer_1" data-name="Layer 1" xmlns="http://www.w3.org/2000/svg" viewBox="0 0 299.06 291.44">
  <defs>
    <style>
      .cls-1 {
        fill: #3c6ab3;
      }

      .cls-2 {
        fill: #bed5e7;
      }

      .cls-3 {
        fill: #0d2c4c;
      }
    </style>
  </defs>
  <path class="cls-2" d="m273.52,227.57c-5.45,0-9.89-4.44-9.89-9.89s4.44-9.89,9.89-9.89,9.89,4.44,9.89,9.89-4.44,9.89-9.89,9.89Zm0-17.17c-4.02,0-7.28,3.27-7.28,7.28s3.27,7.28,7.28,7.28,7.28-3.27,7.28-7.28-3.27-7.28-7.28-7.28Z"/>
  <path class="cls-3" d="m88.44,87.96c-18.39,11.24-33.05,27.65-42.28,47.66-3.73,8.09-6.39,16.41-8.04,24.79,2.26-.44,4.59-.66,6.97-.66,3.72,0,7.3.55,10.69,1.57,1.38-6.21,3.45-12.38,6.22-18.39,6.93-15.04,17.51-27.65,30.7-36.91-3.54-5.18-5.08-11.59-4.26-18.06Zm92.87,185.3s.05,0,.07,0c.05,0,.09,0,.13,0h-.2Zm-20.52-.49c-17.58,2.89-36.18.75-53.54-7.25-1.52-.7-3.01-1.44-4.47-2.2.09,6.11-1.89,12.02-5.68,16.68.94.47,1.88.93,2.84,1.37,14.85,6.83,30.45,10.07,45.81,10.07,8.17,0,16.28-.92,24.18-2.7v-6.86c-.22-.2-.43-.4-.64-.62l-8.5-8.49Zm42.62-184.78c.8,6.48-.74,12.88-4.3,18.06,6.68,4.7,12.59,10.19,17.67,16.28h18.47c1.13,0,2.24.11,3.33.33-8.74-13.78-20.61-25.74-35.17-34.67Z"/>
  <g>
    <circle class="cls-3" cx="145.92" cy="24.49" r="24.49"/>
    <path class="cls-3" d="m188.71,75.76l2.11,13.28c1.31,8.29-4.42,15.38-12.89,15.38h-64.03c-8.47,0-14.21-7.08-12.89-15.38l2.11-13.28c1.67-10.5,9.18-18.95,18.51-22.76,5.54,5.96,14.28,9.86,24.29,9.86s18.75-3.9,24.3-9.86c9.33,3.81,16.84,12.25,18.5,22.76Z"/>
  </g>
  <g>
    <circle class="cls-3" cx="45.09" cy="196.83" r="24.49"/>
    <path class="cls-3" d="m87.89,248.11l2.11,13.28c1.31,8.29-4.42,15.38-12.89,15.38H13.08c-8.47,0-14.21-7.08-12.89-15.38l2.11-13.28c1.67-10.5,9.18-18.95,18.51-22.76,5.54,5.96,14.28,9.86,24.29,9.86s18.75-3.9,24.3-9.86c9.33,3.81,16.84,12.25,18.5,22.76Z"/>
  </g>
  <path class="cls-1" d="m299.04,198.73c-.21-2.06-1.97-3.69-4.09-3.69h-16.22c-1.2-4.23-2.88-8.26-4.97-12.02,0,0,0,0,0,0-.04-.06-.07-.13-.11-.19l.35-.35,11.12-11.12c1.6-1.6,1.6-4.22,0-5.82l-16.03-16.03-.25-.25s-.06-.04-.08-.07c-.79-.75-1.8-1.13-2.83-1.12-.02,0-.04,0-.06,0-.01,0-.03,0-.04,0-1.03,0-2.05.37-2.84,1.12-.03.03-.06.04-.09.07l-11.43,11.43c-1.27-.71-2.57-1.35-3.9-1.96-.87-.4-1.76-.79-2.66-1.15-1.82-.73-3.68-1.38-5.58-1.92v-16.21c0-1.17-.51-2.23-1.31-2.98-.74-.69-1.72-1.13-2.8-1.13h-23.16c-1.1,0-2.09.44-2.83,1.15-.79.75-1.28,1.8-1.28,2.96v16.21c-1.91.54-3.76,1.19-5.58,1.92-.83.33-1.65.69-2.46,1.06-1.39.64-2.76,1.3-4.1,2.05l-11.43-11.43s-.06-.04-.09-.07c-.8-.76-1.83-1.13-2.86-1.12,0,0-.01,0-.02,0,0,0-.02,0-.03,0-1.04,0-2.07.37-2.87,1.13-.02.02-.05.04-.07.06l-.25.25-16.03,16.03c-1.6,1.6-1.6,4.22,0,5.82l11.29,11.29.18.18c-.04.06-.07.13-.11.19,0,0,0,0,0,0-2.08,3.77-3.77,7.79-4.97,12.02h-16.22c-2.11,0-3.87,1.62-4.09,3.69-.01.14-.02.28-.02.42v23.02c0,.14,0,.29.02.42.11,1.03.6,1.96,1.33,2.62.73.66,1.7,1.07,2.76,1.07h16.22c.3,1.06.64,2.11,1,3.15,0,.02.02.05.03.07.17.49.35.98.53,1.47.01.03.02.06.04.08.58,1.52,1.22,3,1.93,4.46.05.1.1.19.14.29.12.26.25.51.38.77h0c.33.64.67,1.29,1.02,1.92l-11.47,11.47c-1.6,1.6-1.6,4.21,0,5.81l16.28,16.28c1.2,1.2,2.97,1.5,4.46.9,0,0,0,0,0,0,.19-.08.37-.18.54-.29.07-.04.15-.08.22-.13.21-.14.41-.3.6-.48l10.63-10.63.84-.84c1.01.56,2.04,1.1,3.08,1.6h0s0,0,0,0c.16.07.32.14.48.22.45.21.91.42,1.37.62.22.09.44.19.66.28.59.25,1.18.49,1.77.71.05.02.09.04.14.06.12.05.24.09.36.13.29.11.59.21.89.32.26.09.53.19.79.28.22.08.44.15.66.22.63.2,1.27.4,1.91.58.02,0,.04.01.06.02.02,0,.04.01.06.02v16.22c0,1.16.5,2.21,1.28,2.96.74.71,1.73,1.15,2.83,1.15h23.16c1.09,0,2.07-.43,2.8-1.13.8-.75,1.31-1.81,1.31-2.98v-16.22s.04-.01.06-.02c.02,0,.04-.01.06-.02.64-.18,1.28-.38,1.91-.58.22-.07.44-.14.66-.22.27-.09.53-.19.8-.29.29-.1.59-.2.88-.31.12-.04.24-.08.36-.13.05-.02.09-.04.14-.06.59-.23,1.18-.47,1.77-.71.22-.09.44-.19.66-.28.46-.2.92-.42,1.37-.62.16-.08.32-.14.48-.22h0s0,0,0,0c1.04-.5,2.07-1.04,3.08-1.6l.84.84,10.63,10.63c.19.18.39.34.6.48.07.05.14.08.21.13.18.11.36.21.55.29,0,0,0,0,0,0,1.49.6,3.26.3,4.46-.9l16.28-16.28c1.6-1.6,1.6-4.21,0-5.81l-11.47-11.47c.36-.63.69-1.28,1.02-1.93h0c.13-.25.25-.5.38-.76.05-.1.1-.19.14-.29.7-1.45,1.35-2.94,1.93-4.46.01-.03.02-.06.04-.08.18-.49.36-.98.53-1.47.01-.02.02-.05.03-.07.36-1.04.7-2.09,1-3.15h16.22c1.06,0,2.03-.41,2.76-1.07.73-.67,1.22-1.59,1.33-2.62.01-.13.02-.28.02-.42v-23.02c0-.14,0-.29-.02-.42Zm-47.55,12.83c0,.07,0,.13-.01.2-.02.37-.05.73-.08,1.1,0,.01,0,.02,0,.03,0,.11-.02.23-.04.34-.04.33-.08.66-.13.99-.02.12-.03.24-.05.36-.05.33-.11.65-.18.97,0,0,0,0,0,.01-.02.11-.04.22-.06.32-.07.37-.16.74-.25,1.11-.01.05-.02.1-.04.16,0,0,0,0,0,.01-.11.43-.23.86-.36,1.28-.01.04-.03.08-.04.12-2.87,9.1-10.28,16.18-19.57,18.59-.07.02-.15.04-.22.05-.32.08-.65.16-.98.23,0,0,0,0-.01,0-.13.03-.27.05-.4.08-.29.06-.59.11-.89.16,0,0-.02,0-.03,0,0,0,0,0,0,0-.11.01-.21.03-.31.05-.37.05-.75.1-1.13.14-.03,0-.06,0-.08.01,0,0-.02,0-.02,0-.1,0-.2.02-.3.03-.32.03-.65.06-.98.08-.06,0-.11,0-.17.01-.06,0-.13,0-.19.01-.42.02-.85.03-1.28.03s-.86-.01-1.28-.03c-.07,0-.13,0-.19-.01-.06,0-.12,0-.17-.01-.33-.02-.66-.05-.98-.08-.1,0-.2-.02-.3-.03,0,0-.02,0-.02,0-.03,0-.06,0-.09-.01-.38-.04-.75-.09-1.13-.14-.1-.02-.21-.04-.32-.05,0,0,0,0,0,0,0,0,0,0-.01,0-.3-.05-.6-.1-.9-.16-.13-.03-.27-.05-.4-.08,0,0,0,0-.01,0-.33-.07-.66-.14-.98-.23-.07-.01-.15-.04-.22-.05-9.3-2.41-16.7-9.49-19.57-18.59-.01-.04-.03-.08-.04-.12-.13-.42-.25-.85-.36-1.28,0,0,0,0,0-.01-.01-.05-.02-.11-.04-.16-.09-.37-.18-.74-.25-1.11-.02-.11-.04-.21-.06-.32,0,0,0,0,0-.01-.07-.32-.12-.64-.18-.97-.02-.12-.03-.24-.05-.36-.05-.33-.09-.66-.13-.99-.01-.11-.03-.23-.04-.34,0-.01,0-.02,0-.03-.04-.37-.06-.73-.08-1.1,0-.07-.01-.13-.01-.2-.02-.46-.03-.92-.03-1.39,0-7.38,2.87-14.08,7.55-19.07,4.78-5.09,11.45-8.39,18.88-8.76.48-.02.95-.04,1.43-.04s.96.01,1.43.04c7.49.38,14.2,3.72,18.99,8.88,4.62,4.97,7.44,11.63,7.44,18.95,0,.47-.01.93-.03,1.39Z"/>
  <circle class="cls-1" cx="223.66" cy="210.17" r="14.85"/>
</svg>