<?xml version="1.0" encoding="utf-8"?>
<!-- Generator: Adobe Illustrator 27.8.1, SVG Export Plug-In . SVG Version: 6.00 Build 0)  -->
<svg version="1.1" id="Layer_1" xmlns="http://www.w3.org/2000/svg" xmlns:xlink="http://www.w3.org/1999/xlink" x="0px" y="0px"
	 viewBox="0 0 292.8 292.8" style="enable-background:new 0 0 292.8 292.8;" xml:space="preserve">
<style type="text/css">
	.st0{fill:#66CCFF;}
</style>
<g>
	<rect x="141.5" y="12.4" class="st0" width="10.2" height="46.4"/>
	<polygon class="st0" points="146.6,0 124,31.4 169.2,31.4 	"/>
	<rect x="12.4" y="141.5" class="st0" width="46.4" height="10.2"/>
	<polygon class="st0" points="0,146.6 31.4,124 31.4,169.2 	"/>
</g>
<g>
	<rect x="141.1" y="234" class="st0" width="10.2" height="46.4"/>
	<polygon class="st0" points="146.2,292.8 168.8,261.4 123.6,261.4 	"/>
	<rect x="234" y="141.1" class="st0" width="46.4" height="10.2"/>
	<polygon class="st0" points="292.8,146.2 261.4,168.8 261.4,123.6 	"/>
</g>
<path class="st0" d="M146.4,247.8c-26.4,0-51.5-10.1-70.6-28.4c-20.2-19.4-31.3-45.5-31.3-73.5s11.2-54.3,31.6-73.7
	c19-18.1,44-28.1,70.3-28.1s51.3,10,70.3,28.1c20.4,19.4,31.6,45.6,31.6,73.7S237.2,200,217,219.4
	C197.9,237.7,172.8,247.8,146.4,247.8L146.4,247.8z M146.4,54.8c-23.5,0-45.9,8.9-62.9,25.2c-18.2,17.4-28.2,40.8-28.2,66
	s9.9,48.4,28,65.7c17.1,16.4,39.5,25.4,63.1,25.4s46.1-9,63.1-25.4c18.1-17.4,28-40.7,28-65.7s-10-48.6-28.2-66
	C192.2,63.8,169.9,54.8,146.4,54.8L146.4,54.8z"/>
<rect x="194.4" y="68.1" transform="matrix(0.7071 -0.7071 0.7071 0.7071 7.831 174.8584)" class="st0" width="41.2" height="19.7"/>
<rect x="57" y="205.6" transform="matrix(0.7071 -0.7071 0.7071 0.7071 -129.5943 117.9627)" class="st0" width="41.2" height="19.7"/>
<rect x="205.2" y="193.9" transform="matrix(0.7071 -0.7071 0.7071 0.7071 -88.6776 214.892)" class="st0" width="19.7" height="41.2"/>
<rect x="68.5" y="57.2" transform="matrix(0.7071 -0.7071 0.7071 0.7071 -32.0745 78.1972)" class="st0" width="19.7" height="41.2"/>
<path class="st0" d="M113.1,146.3c0-7.2,0.5-14.2,1.3-20.9H84.3c-2.2,6.6-3.4,13.7-3.4,20.9s1.1,13.8,3.2,20.2h30.3
	C113.5,160.1,113.1,153.3,113.1,146.3L113.1,146.3z"/>
<path class="st0" d="M180.2,146.3c0-7.2-0.5-14.2-1.3-20.9H209c2.2,6.6,3.4,13.7,3.4,20.9s-1.1,13.8-3.1,20.2H179
	C179.7,160.1,180.2,153.3,180.2,146.3L180.2,146.3z"/>
<path class="st0" d="M115.5,174.2H87.1c3.4,7.2,8.1,13.9,14.1,19.6c8.1,7.8,17.9,13.2,28.5,16.1c-2.8-3.4-5.3-7.8-7.5-12.9
	C119.3,190.3,117.1,182.6,115.5,174.2L115.5,174.2z"/>
<path class="st0" d="M177.5,174.2h28.4c-3.4,7.2-8.1,13.9-14.1,19.6c-8.1,7.8-17.9,13.2-28.4,16.1c2.8-3.4,5.3-7.8,7.5-12.9
	C173.7,190.3,175.9,182.6,177.5,174.2L177.5,174.2z"/>
<path class="st0" d="M177.6,117.8h28.2c-3.4-7-8.1-13.5-13.9-19c-8-7.7-17.7-13.1-28.2-15.9c2.7,3.4,5.2,7.8,7.4,12.9
	C173.9,102.2,176.1,109.7,177.6,117.8z"/>
<path class="st0" d="M123.3,117.8h46.6c-1.4-7-3.3-13.5-5.7-19.1c-4.9-11.5-11.3-18-17.6-18s-12.6,6.6-17.6,18
	C126.7,104.4,124.8,110.8,123.3,117.8z"/>
<path class="st0" d="M169.9,174.2h-46.6c1.4,7.1,3.3,13.7,5.7,19.4c4.9,11.6,11.3,18.3,17.6,18.3s12.6-6.7,17.6-18.3
	C166.6,187.9,168.5,181.3,169.9,174.2z"/>
<path class="st0" d="M122.1,95.8c2.2-5.1,4.7-9.4,7.4-12.9c-10.5,2.8-20.2,8.2-28.2,15.9c-5.8,5.6-10.5,12-13.9,19h28.2
	C117.2,109.7,119.3,102.2,122.1,95.8z"/>
<path class="st0" d="M172.6,145.7c0-0.2,0-0.4,0-0.7c0,0,0,0,0-0.1c0-6.7-0.5-13.3-1.3-19.5h-49.2c-0.5,3.4-0.8,6.8-1.1,10.4l0,0
	c-0.2,3.2-0.3,6.6-0.3,9.9c0,0.1,0,0.2,0,0.3s0,0.2,0,0.3c0,0.2,0,0.4,0,0.7c0,0,0,0,0,0.1c0,6.7,0.5,13.3,1.3,19.5h49.2
	c0.5-3.4,0.8-6.8,1.1-10.4l0,0c0.2-3.2,0.3-6.6,0.3-9.9c0-0.1,0-0.2,0-0.3S172.6,145.8,172.6,145.7L172.6,145.7z"/>
</svg>
