<?xml version="1.0" encoding="UTF-8"?>
<svg id="Layer_1" data-name="Layer 1" xmlns="http://www.w3.org/2000/svg" viewBox="0 0 292.8 292.8">
  <defs>
    <style>
      .cls-1 {
        fill: #3c6ab3;
      }

      .cls-2 {
        fill: #0d2c4c;
      }
    </style>
  </defs>
  <g>
    <rect class="cls-1" x="141.48" y="12.35" width="10.25" height="46.43"/>
    <polygon class="cls-1" points="146.6 0 123.97 31.41 169.23 31.41 146.6 0"/>
    <rect class="cls-1" x="12.35" y="141.47" width="46.43" height="10.25"/>
    <polygon class="cls-1" points="0 146.6 31.41 123.97 31.41 169.22 0 146.6"/>
  </g>
  <g>
    <rect class="cls-1" x="141.08" y="234.03" width="10.25" height="46.43"/>
    <polygon class="cls-1" points="146.2 292.8 168.83 261.4 123.58 261.4 146.2 292.8"/>
    <rect class="cls-1" x="234.03" y="141.08" width="46.43" height="10.25"/>
    <polygon class="cls-1" points="292.8 146.21 261.4 168.83 261.4 123.58 292.8 146.21"/>
  </g>
  <path class="cls-2" d="m146.37,247.8c-26.43,0-51.48-10.08-70.55-28.39-20.19-19.39-31.31-45.48-31.31-73.48s11.21-54.3,31.57-73.72c19.03-18.14,43.99-28.14,70.29-28.14s51.26,9.99,70.29,28.14c20.36,19.42,31.57,45.6,31.57,73.72s-11.12,54.09-31.31,73.48c-19.06,18.31-44.12,28.39-70.55,28.39Zm0-192.99c-23.53,0-45.86,8.94-62.88,25.17-18.21,17.37-28.24,40.8-28.24,65.96s9.95,48.39,28.01,65.73c17.06,16.38,39.47,25.4,63.11,25.4s46.06-9.02,63.11-25.4c18.07-17.35,28.02-40.69,28.02-65.73s-10.03-48.58-28.24-65.96c-17.02-16.23-39.35-25.17-62.88-25.17Z"/>
  <rect class="cls-2" x="194.44" y="68.14" width="41.17" height="19.68" transform="translate(7.84 174.88) rotate(-45)"/>
  <rect class="cls-2" x="56.98" y="205.59" width="41.17" height="19.68" transform="translate(-129.62 117.95) rotate(-45)"/>
  <rect class="cls-2" x="205.2" y="193.89" width="19.68" height="41.17" transform="translate(-88.67 214.88) rotate(-45)"/>
  <rect class="cls-2" x="68.53" y="57.22" width="19.68" height="41.17" transform="translate(-32.06 78.2) rotate(-45)"/>
  <path class="cls-1" d="m113.09,146.34c0-7.18.46-14.21,1.34-20.9h-30.12c-2.22,6.64-3.38,13.68-3.38,20.92s1.08,13.79,3.15,20.23h30.26c-.82-6.5-1.25-13.31-1.25-20.26Z"/>
  <path class="cls-1" d="m180.17,146.34c0-7.18-.46-14.21-1.34-20.9h30.12c2.22,6.64,3.38,13.68,3.38,20.92s-1.08,13.79-3.15,20.23h-30.26c.82-6.5,1.25-13.31,1.25-20.26Z"/>
  <path class="cls-1" d="m115.51,174.18h-28.45c3.38,7.23,8.11,13.85,14.07,19.57,8.09,7.77,17.86,13.24,28.45,16.08-2.75-3.45-5.26-7.78-7.46-12.92-2.85-6.65-5.07-14.36-6.6-22.73Z"/>
  <path class="cls-1" d="m177.47,174.18h28.45c-3.38,7.23-8.11,13.85-14.07,19.57-8.09,7.77-17.86,13.24-28.45,16.08,2.75-3.45,5.26-7.78,7.46-12.92,2.85-6.65,5.07-14.36,6.6-22.73Z"/>
  <path class="cls-1" d="m177.62,117.85h28.25c-3.39-7.03-8.06-13.47-13.91-19.04-8.04-7.67-17.73-13.08-28.23-15.9,2.73,3.44,5.22,7.75,7.41,12.86,2.78,6.48,4.96,13.96,6.48,22.08Z"/>
  <path class="cls-1" d="m123.35,117.85h46.56c-1.4-7.02-3.32-13.48-5.73-19.09-4.91-11.46-11.31-18.03-17.55-18.03s-12.64,6.57-17.55,18.03c-2.41,5.62-4.33,12.07-5.73,19.09Z"/>
  <path class="cls-1" d="m169.9,174.18h-46.56c1.4,7.14,3.32,13.7,5.73,19.41,4.91,11.65,11.31,18.33,17.55,18.33s12.64-6.68,17.55-18.33c2.41-5.71,4.33-12.27,5.73-19.41Z"/>
  <path class="cls-1" d="m122.11,95.77c2.19-5.12,4.69-9.42,7.41-12.86-10.5,2.82-20.19,8.23-28.23,15.9-5.84,5.57-10.52,12.01-13.91,19.04h28.25c1.52-8.12,3.7-15.6,6.48-22.08Z"/>
  <path class="cls-1" d="m172.58,145.69c0-.23,0-.45,0-.68,0-.02,0-.03,0-.05-.03-6.73-.48-13.29-1.31-19.53h-49.19c-.47,3.36-.82,6.82-1.05,10.35-.01,0-.03,0-.04,0-.2,3.25-.31,6.55-.31,9.89,0,.11,0,.21,0,.32,0,.11,0,.21,0,.32,0,.23,0,.45,0,.68,0,.02,0,.03,0,.05.03,6.73.47,13.29,1.31,19.53h49.19c.47-3.36.82-6.82,1.05-10.35.01,0,.03,0,.04,0,.2-3.25.31-6.55.31-9.89,0-.11,0-.21,0-.32,0-.11,0-.21,0-.32Z"/>
</svg>