<?xml version="1.0" encoding="UTF-8"?>
<svg id="Layer_1" data-name="Layer 1" xmlns="http://www.w3.org/2000/svg" viewBox="0 0 236.48 259.79">
  <defs>
    <style>
      .cls-1 {
        fill: #fff;
      }

      .cls-2 {
        fill: #3c6ab3;
      }

      .cls-3 {
        fill: #0d2c4c;
      }
    </style>
  </defs>
  <g>
    <circle class="cls-3" cx="118.67" cy="23.54" r="23.54"/>
    <path class="cls-3" d="m156.35,75.17v12.33c0,7.12-5.46,12.9-12.2,12.9h-2.72v-7.39c0-5.52-4.48-10-10-10h-26.38c-5.53,0-10,4.48-10,10v7.39h-1.87c-6.74,0-12.2-5.78-12.2-12.9v-12.33c0-10.64,5.85-19.85,14.33-24.2,5.75,6.75,14.09,11.01,23.36,11.01s17.6-4.26,23.36-11.01c8.48,4.35,14.32,13.56,14.32,24.2Z"/>
  </g>
  <polygon class="cls-3" points="22.47 98.5 22.47 139.19 0 139.19 35.66 186.16 71.32 139.19 48.85 139.19 48.85 98.5 22.47 98.5"/>
  <polygon class="cls-2" points="105.05 93.01 105.05 133.7 82.58 133.7 118.24 180.67 153.9 133.7 131.43 133.7 131.43 93.01 105.05 93.01"/>
  <polygon class="cls-3" points="187.63 98.5 187.63 139.19 165.16 139.19 200.82 186.16 236.48 139.19 214.01 139.19 214.01 98.5 187.63 98.5"/>
  <circle class="cls-2" cx="117.32" cy="226.64" r="33.14" transform="translate(-77.8 62.15) rotate(-22.5)"/>
  <circle class="cls-3" cx="37.38" cy="224.98" r="33.14" transform="translate(-148.14 92.33) rotate(-45)"/>
  <g>
    <path class="cls-1" d="m107.28,240.68c-1.03,0-2.06-.39-2.85-1.18-1.57-1.58-1.57-4.13,0-5.7l20.08-20.08c1.57-1.58,4.13-1.57,5.7,0,1.57,1.58,1.57,4.13,0,5.7l-20.08,20.08c-.79.79-1.82,1.18-2.85,1.18Z"/>
    <path class="cls-1" d="m127.36,240.68c-1.03,0-2.06-.39-2.85-1.18l-20.08-20.08c-1.57-1.57-1.57-4.13,0-5.7,1.58-1.57,4.13-1.57,5.7,0l20.08,20.08c1.57,1.57,1.57,4.13,0,5.7-.79.79-1.82,1.18-2.85,1.18Z"/>
  </g>
  <path class="cls-1" d="m33.42,238.95c-.94,0-1.89-.33-2.65-.99l-8.94-7.8c-1.68-1.46-1.85-4.01-.39-5.69,1.46-1.68,4.01-1.85,5.69-.39l6.06,5.29,15.24-15.63c1.55-1.59,4.11-1.63,5.7-.07,1.59,1.55,1.63,4.11.07,5.7l-17.9,18.36c-.79.81-1.84,1.22-2.89,1.22Z"/>
  <circle class="cls-3" cx="201.38" cy="224.98" r="33.14" transform="translate(-100.11 208.29) rotate(-45)"/>
  <path class="cls-1" d="m197.42,238.95c-.94,0-1.89-.33-2.65-.99l-8.94-7.8c-1.68-1.46-1.85-4.01-.39-5.69,1.46-1.68,4.01-1.85,5.69-.39l6.06,5.29,15.24-15.63c1.55-1.59,4.11-1.63,5.7-.07,1.59,1.55,1.63,4.11.07,5.7l-17.9,18.36c-.79.81-1.84,1.22-2.89,1.22Z"/>
</svg>