<?xml version="1.0" encoding="utf-8"?>
<!-- Generator: Adobe Illustrator 27.8.1, SVG Export Plug-In . SVG Version: 6.00 Build 0)  -->
<svg version="1.1" id="Layer_1" xmlns="http://www.w3.org/2000/svg" xmlns:xlink="http://www.w3.org/1999/xlink" x="0px" y="0px"
	 viewBox="0 0 236.5 259.8" style="enable-background:new 0 0 236.5 259.8;" xml:space="preserve">
<style type="text/css">
	.st0{fill:#66CCFF;}
</style>
<g>
	<circle class="st0" cx="118.7" cy="23.5" r="23.5"/>
	<path class="st0" d="M156.4,75.2v12.3c0,7.1-5.5,12.9-12.2,12.9h-2.7V93c0-5.5-4.5-10-10-10h-26.4c-5.5,0-10,4.5-10,10v7.4h-1.9
		c-6.7,0-12.2-5.8-12.2-12.9V75.2c0-10.6,5.8-19.8,14.3-24.2c5.8,6.8,14.1,11,23.4,11s17.6-4.3,23.4-11
		C150.5,55.3,156.4,64.5,156.4,75.2z"/>
</g>
<polygon class="st0" points="22.5,98.5 22.5,139.2 0,139.2 35.7,186.2 71.3,139.2 48.8,139.2 48.8,98.5 "/>
<polygon class="st0" points="105.1,93 105.1,133.7 82.6,133.7 118.2,180.7 153.9,133.7 131.4,133.7 131.4,93 "/>
<polygon class="st0" points="187.6,98.5 187.6,139.2 165.2,139.2 200.8,186.2 236.5,139.2 214,139.2 214,98.5 "/>
<circle class="st0" cx="117.3" cy="226.6" r="33.1"/>
<circle class="st0" cx="37.4" cy="225" r="33.1"/>
<g>
	<path class="st0" d="M107.3,240.7c-1,0-2.1-0.4-2.8-1.2c-1.6-1.6-1.6-4.1,0-5.7l20.1-20.1c1.6-1.6,4.1-1.6,5.7,0
		c1.6,1.6,1.6,4.1,0,5.7l-20.1,20.1C109.3,240.3,108.3,240.7,107.3,240.7z"/>
	<path class="st0" d="M127.4,240.7c-1,0-2.1-0.4-2.8-1.2l-20.1-20.1c-1.6-1.6-1.6-4.1,0-5.7c1.6-1.6,4.1-1.6,5.7,0l20.1,20.1
		c1.6,1.6,1.6,4.1,0,5.7C129.4,240.3,128.4,240.7,127.4,240.7z"/>
</g>
<path class="st0" d="M33.4,238.9c-0.9,0-1.9-0.3-2.6-1l-8.9-7.8c-1.7-1.5-1.9-4-0.4-5.7c1.5-1.7,4-1.9,5.7-0.4l6.1,5.3l15.2-15.6
	c1.5-1.6,4.1-1.6,5.7-0.1c1.6,1.6,1.6,4.1,0.1,5.7l-17.9,18.4C35.5,238.5,34.5,238.9,33.4,238.9L33.4,238.9z"/>
<circle class="st0" cx="201.4" cy="225" r="33.1"/>
<path class="st0" d="M197.4,238.9c-0.9,0-1.9-0.3-2.6-1l-8.9-7.8c-1.7-1.5-1.9-4-0.4-5.7c1.5-1.7,4-1.9,5.7-0.4l6.1,5.3l15.2-15.6
	c1.6-1.6,4.1-1.6,5.7-0.1c1.6,1.6,1.6,4.1,0.1,5.7l-17.9,18.4C199.5,238.5,198.5,238.9,197.4,238.9L197.4,238.9z"/>
</svg>
