<?xml version="1.0" encoding="utf-8"?>
<!-- Generator: Adobe Illustrator 27.8.1, SVG Export Plug-In . SVG Version: 6.00 Build 0)  -->
<svg version="1.1" id="Layer_1" xmlns="http://www.w3.org/2000/svg" xmlns:xlink="http://www.w3.org/1999/xlink" x="0px" y="0px"
	 viewBox="0 0 365.7 287.7" style="enable-background:new 0 0 365.7 287.7;" xml:space="preserve">
<style type="text/css">
	.st0{fill:#66CCFF;}
</style>
<path class="st0" d="M141.6,98.9c-0.1,0-0.1,0-0.2,0c0.1,0,0.2,0,0.3,0H141.6z"/>
<path class="st0" d="M185.1,78.8L185.1,78.8C185.1,78.8,185.2,78.8,185.1,78.8C185.2,78.8,185.1,78.8,185.1,78.8L185.1,78.8z"/>
<path class="st0" d="M264.7,93.7l-6.5,22.6c-0.5,1.9-2.6,3-4.5,2.5l-14.4-4.2c-2.2,3.4-4.7,6.7-7.7,9.6c-3.6,3.6-7.5,6.5-11.8,8.9
	l3.4,14.6c0.5,1.9-0.8,3.9-2.7,4.4l-22.9,5.3c-1.9,0.5-3.9-0.8-4.4-2.7l-3.4-14.7c-8.9-0.5-17.8-3.2-25.6-8l-11.1,10.1
	c-1.5,1.4-3.8,1.2-5.1-0.2l-15.9-17.4c-1.4-1.5-1.2-3.8,0.2-5.1l10.9-9.9l15.7-1.2c7.3-0.5,12.7-6.9,12.2-14.1l-0.2-3
	c1.4-0.8,2.7-1.7,4-2.6c0.7-0.5,1.3-1,1.9-1.5c0.8,5.4,4.1,10.3,9.4,12.7c8.3,3.8,18.1,0.2,21.9-8.1c3.5-7.5,0.8-16.3-5.9-20.7
	l1.8-3.8c1.5-3.2,1.6-6.8,0.4-10.1c-1.2-3.3-3.6-5.9-6.8-7.4l-2.9-1.4c0-2.5-0.3-5-0.7-7.5l2.4-1.8c2.9-2.1,4.8-5.1,5.4-8.2
	c6,1,11.8,2.9,17.3,6l10.7-10.6c1.4-1.4,4.2-1.3,5.7,0.1L252,43.1c1.4,1.4,0.9,3.6-0.6,5l-10.7,10.6c4.6,8.3,6.8,17.2,6.8,26.2
	l14.6,4.3C264.1,89.7,265.2,91.8,264.7,93.7L264.7,93.7z"/>
<path class="st0" d="M185.1,78.8L185.1,78.8C185.1,78.8,185.2,78.8,185.1,78.8C185.2,78.8,185.1,78.8,185.1,78.8L185.1,78.8z"/>
<path class="st0" d="M208,91.7c-3.8,8.3-13.6,11.9-21.9,8.1c-5.3-2.4-8.7-7.3-9.4-12.7l0.1-0.1l2.8,1.3c1.8,0.8,3.6,1.2,5.6,1.2
	c5.1,0,9.8-3,12-7.6l5-10.8C208.8,75.5,211.5,84.2,208,91.7L208,91.7z"/>
<g>
	<path class="st0" d="M160.3,95l-0.8-10.3c3.1-1.2,6.1-2.7,8.9-4.8c2.4-1.7,4.4-3.6,6.3-5.7l9.4,4.4c1.2,0.6,2.7,0,3.3-1.2l6.8-14.7
		c0.6-1.2,0-2.7-1.2-3.3l-9.5-4.5c0.9-6.1,0.4-12.4-1.8-18.5l8.4-6.1c1.1-0.8,1.7-2.2,0.9-3.4l-9.5-13.1c-0.8-1.1-2.7-1.5-3.8-0.7
		l-8.4,6.1c-4.1-3.2-8.7-5.3-13.6-6.6l-0.3-10.3c0-1.4-1.2-2.4-2.5-2.4l-16.2,0.5c-1.4,0-2.4,1.2-2.4,2.6l0.3,10.3
		c-3.6,1.2-7.2,2.9-10.5,5.3c-1.9,1.4-3.6,2.9-5.2,4.5l-9.2-4.8c-1.2-0.6-2.7-0.2-3.4,1.1L99,33.9c-0.6,1.2-0.2,2.7,1.1,3.4l9.2,4.8
		c-1.2,6.1-0.9,12.4,0.9,18.4l-8.6,5.7c-1.2,0.8-1.5,2.3-0.7,3.4l8.9,13.5c0.8,1.2,2.3,1.5,3.4,0.7l8.6-5.7
		c4.8,4.1,10.5,6.9,16.6,8.1l0.8,10.3c0.1,1.4,1.3,2.4,2.7,2.3l16.1-1.2C159.3,97.6,160.4,96.4,160.3,95L160.3,95z"/>
	<circle class="st0" cx="146.5" cy="49.1" r="17.7"/>
</g>
<path class="st0" d="M259.9,243.6h-52.1v-46l36.7-42.6c3.2-3.2,10.3-3.4,13.6-0.2l0.8,0.8c3.2,3.2,3.4,10.6,0.1,13.8l-23.9,31.3
	c-2,2.6-1.6,6.2,0.9,8.3l0,0c2.7,2.3,6.7,1.8,8.8-1l24.1-32.2c3-4,4.6-8.9,4.5-13.9v-0.2c0-5.6-2.1-10.9-5.8-15l-2.8-3.1
	c-1.9-2.1-1.9-5.2,0-7.3c0,0,4.1-6.5,8.3-13.4c3.8-6.4,7.6-13.3,9.9-13.5c5.5-0.5,9.3,3.8,9.3,9.2l-0.2,49.4l-0.1,24.8
	c0,8-2.8,15.8-7.9,22C274.6,226.4,259.9,243.6,259.9,243.6L259.9,243.6z"/>
<rect x="207.3" y="253.2" class="st0" width="56.3" height="26.9"/>
<path class="st0" d="M250.9,258.5c3,0,5.5,2.5,5.5,5.5s-2.5,5.5-5.5,5.5s-5.5-2.5-5.5-5.5S247.8,258.5,250.9,258.5z"/>
<path class="st0" d="M125.4,243.6h52.1v-46L140.8,155c-3.2-3.2-10.3-3.4-13.6-0.2l-0.8,0.8c-3.2,3.2-3.3,10.6-0.1,13.8l23.9,31.3
	c2,2.6,1.6,6.2-0.9,8.3l0,0c-2.7,2.3-6.7,1.8-8.8-1l-24.1-32.2c-3-4-4.6-8.9-4.6-13.9v-0.2c0.1-5.6,2.1-10.9,5.8-15l2.8-3.1
	c1.8-2.1,1.8-5.2,0-7.3c0,0-4.2-6.5-8.3-13.4c-3.8-6.4-7.6-13.3-9.9-13.5c-5.5-0.5-9.3,3.8-9.3,9.2l0.2,49.4l0.1,24.8
	c0,8,2.8,15.8,7.9,22C110.7,226.4,125.4,243.6,125.4,243.6L125.4,243.6z"/>
<rect x="121.7" y="253.2" class="st0" width="56.3" height="26.9"/>
<path class="st0" d="M134.4,258.5c-3,0-5.5,2.5-5.5,5.5s2.5,5.5,5.5,5.5s5.5-2.5,5.5-5.5S137.5,258.5,134.4,258.5z"/>
</svg>
