<?xml version="1.0" encoding="UTF-8"?>
<svg id="Layer_1" data-name="Layer 1" xmlns="http://www.w3.org/2000/svg" viewBox="0 0 645.14 265.29">
  <defs>
    <style>
      .cls-1 {
        fill: #50b851;
      }

      .cls-2 {
        fill: #eaeaea;
      }

      .cls-3 {
        fill: #ededed;
      }
    </style>
  </defs>
  <g>
    <path class="cls-3" d="m4.93,152.05h19.53c11.75,0,17.37,8.06,17.37,16.97,0,9.37-5.62,17.26-17.37,17.26h-8.17v10.05H4.93v-44.28Zm11.35,10.33v13.57h7.55c4.77,0,6.53-2.95,6.53-6.87,0-3.52-1.76-6.7-6.53-6.7h-7.55Z"/>
    <path class="cls-3" d="m80.65,151.2c12.94,0,23.5,10.33,23.5,22.99s-10.56,22.99-23.5,22.99-23.5-10.33-23.5-22.99,10.73-22.99,23.5-22.99Zm0,35.02c6.81,0,12.03-5.34,12.03-12.03s-5.22-12.03-12.03-12.03-12.03,5.33-12.03,12.03,5.39,12.03,12.03,12.03Z"/>
    <path class="cls-3" d="m143.54,152.05c11.35,0,16.57,7.38,16.57,16.18,0,6.19-2.78,11.98-8.74,14.7l9.59,13.4h-13.57l-8.4-11.86h-5.79v11.86h-11.3v-44.28h21.63Zm-10.33,10.33v11.81h9.71c4.54,0,6.24-2.78,6.24-5.85,0-3.41-1.7-5.96-6.24-5.96h-9.71Z"/>
    <path class="cls-3" d="m175.73,152.05h38.94v11.01h-13.79v33.26h-11.35v-33.26h-13.79v-11.01Z"/>
    <path class="cls-3" d="m269.78,196.33l-12.43-44.28h12.09l7.15,26.4,8.29-26.4h10.1l8.29,26.34,7.15-26.34h12.15l-12.43,44.28h-11.75l-8.46-25.71-8.4,25.71h-11.75Z"/>
    <path class="cls-3" d="m364.74,152.05l17.88,44.28h-12.37l-2.44-6.47h-17.43l-2.44,6.47h-12.37l17.94-44.28h11.24Zm-5.62,14.53l-4.88,13h9.71l-4.82-13Z"/>
    <path class="cls-3" d="m399.08,152.05h11.3v33.32h21.23v10.96h-32.52v-44.28Z"/>
    <path class="cls-3" d="m448.8,152.05h11.3v33.32h21.23v10.96h-32.52v-44.28Z"/>
    <path class="cls-3" d="m509.88,152.05v44.28h-11.35v-44.28h11.35Z"/>
    <path class="cls-3" d="m539.05,183.05v.28c0,1.7,2.33,4.03,7.49,4.03,4.26,0,5.62-1.42,5.62-2.72,0-1.87-2.21-3.01-7.55-4.82-7.04-2.33-16.29-5.73-16.29-14.87,0-8.46,7.21-13.74,17.31-13.74s18.11,5.51,18.11,14.3v.62h-11.07v-.4c0-2.16-2.21-4.71-6.81-4.71-3.86,0-5.39,1.53-5.39,3.01,0,1.76,2.04,2.67,7.32,4.48,6.13,2.16,16.58,5.79,16.58,15.5,0,8.63-7.49,13.17-17.6,13.17-10.61,0-18.79-4.94-18.79-13.62v-.51h11.07Z"/>
    <path class="cls-3" d="m2.21,220.17h38.94v11.01h-13.79v33.26h-11.35v-33.26H2.21v-11.01Z"/>
    <path class="cls-3" d="m58.29,220.17h34v11.01h-22.65v6.36h18.62v10.27h-18.62v5.68h22.65v10.96h-34v-44.28Z"/>
    <path class="cls-3" d="m153.25,252.58c-3.86,7.55-11.86,12.71-21,12.71-12.77,0-23.5-10.33-23.5-22.99s10.73-22.99,23.5-22.99c9.14,0,17.03,5.17,20.95,12.6l-10.33,4.66c-1.99-3.75-5.96-6.3-10.61-6.3-6.64,0-12.03,5.33-12.03,12.03s5.39,12.03,12.03,12.03c4.71,0,8.63-2.55,10.61-6.3l10.39,4.54Z"/>
    <path class="cls-3" d="m210.98,220.17v44.28h-11.35v-16.46h-18.05v16.46h-11.3v-44.28h11.3v17.2h18.05v-17.2h11.35Z"/>
    <path class="cls-3" d="m230.84,264.44v-44.28h9.65l19.75,24.75v-24.75h11.3v44.28h-9.59l-19.75-24.69v24.69h-11.35Z"/>
    <path class="cls-3" d="m312.81,219.31c12.94,0,23.5,10.33,23.5,22.99s-10.56,22.99-23.5,22.99-23.5-10.33-23.5-22.99,10.73-22.99,23.5-22.99Zm0,35.02c6.81,0,12.03-5.34,12.03-12.03s-5.22-12.03-12.03-12.03-12.03,5.33-12.03,12.03,5.39,12.03,12.03,12.03Z"/>
    <path class="cls-3" d="m354.07,220.17h11.3v33.32h21.23v10.96h-32.52v-44.28Z"/>
    <path class="cls-3" d="m425.19,219.31c12.94,0,23.5,10.33,23.5,22.99s-10.56,22.99-23.5,22.99-23.5-10.33-23.5-22.99,10.73-22.99,23.5-22.99Zm0,35.02c6.81,0,12.03-5.34,12.03-12.03s-5.22-12.03-12.03-12.03-12.03,5.33-12.03,12.03,5.39,12.03,12.03,12.03Z"/>
    <path class="cls-3" d="m486.61,238.61h21.34v25.83h-8.91v-4.14c-2.16,3.29-6.64,5-11.18,5-12.83,0-23.5-10.33-23.5-22.99s10.67-22.99,23.5-22.99c7.61,0,14.47,3.69,18.73,9.25l-9.25,6.24c-2.21-2.78-5.62-4.54-9.48-4.54-6.7,0-12.03,5.33-12.03,12.03s5.34,12.03,12.03,12.03c3.97,0,7.38-1.99,9.48-5.05v-1.25h-10.73v-9.42Z"/>
    <path class="cls-3" d="m538.09,220.17v44.28h-11.35v-44.28h11.35Z"/>
    <path class="cls-3" d="m557.96,220.17h34v11.01h-22.65v6.36h18.62v10.27h-18.62v5.68h22.65v10.96h-34v-44.28Z"/>
    <path class="cls-3" d="m619.82,251.16v.28c0,1.7,2.33,4.03,7.49,4.03,4.26,0,5.62-1.42,5.62-2.72,0-1.87-2.21-3.01-7.55-4.82-7.04-2.33-16.29-5.73-16.29-14.87,0-8.46,7.21-13.74,17.31-13.74s18.11,5.51,18.11,14.3v.62h-11.07v-.4c0-2.16-2.21-4.71-6.81-4.71-3.86,0-5.39,1.53-5.39,3.01,0,1.76,2.04,2.67,7.32,4.48,6.13,2.16,16.58,5.79,16.58,15.5,0,8.63-7.49,13.17-17.6,13.17-10.61,0-18.79-4.94-18.79-13.62v-.51h11.07Z"/>
  </g>
  <g>
    <path d="m2.72,149.84h19.53c11.75,0,17.37,8.06,17.37,16.97,0,9.37-5.62,17.26-17.37,17.26h-8.17v10.05H2.72v-44.28Zm11.35,10.33v13.57h7.55c4.77,0,6.53-2.95,6.53-6.87,0-3.52-1.76-6.7-6.53-6.7h-7.55Z"/>
    <path d="m78.44,148.99c12.94,0,23.5,10.33,23.5,22.99s-10.56,22.99-23.5,22.99-23.5-10.33-23.5-22.99,10.73-22.99,23.5-22.99Zm0,35.02c6.81,0,12.03-5.34,12.03-12.03s-5.22-12.03-12.03-12.03-12.03,5.33-12.03,12.03,5.39,12.03,12.03,12.03Z"/>
    <path d="m141.33,149.84c11.35,0,16.57,7.38,16.57,16.18,0,6.19-2.78,11.98-8.74,14.7l9.59,13.4h-13.57l-8.4-11.86h-5.79v11.86h-11.3v-44.28h21.63Zm-10.33,10.33v11.81h9.71c4.54,0,6.24-2.78,6.24-5.85,0-3.41-1.7-5.96-6.24-5.96h-9.71Z"/>
    <path d="m173.52,149.84h38.94v11.01h-13.79v33.26h-11.35v-33.26h-13.79v-11.01Z"/>
    <path d="m267.57,194.12l-12.43-44.28h12.09l7.15,26.4,8.29-26.4h10.1l8.29,26.34,7.15-26.34h12.15l-12.43,44.28h-11.75l-8.46-25.71-8.4,25.71h-11.75Z"/>
    <path d="m362.53,149.84l17.88,44.28h-12.37l-2.44-6.47h-17.43l-2.44,6.47h-12.37l17.94-44.28h11.24Zm-5.62,14.53l-4.88,13h9.71l-4.82-13Z"/>
    <path d="m396.87,149.84h11.3v33.32h21.23v10.96h-32.52v-44.28Z"/>
    <path d="m446.59,149.84h11.3v33.32h21.23v10.96h-32.52v-44.28Z"/>
    <path d="m507.67,149.84v44.28h-11.35v-44.28h11.35Z"/>
    <path d="m536.84,180.84v.28c0,1.7,2.33,4.03,7.49,4.03,4.26,0,5.62-1.42,5.62-2.72,0-1.87-2.21-3.01-7.55-4.82-7.04-2.33-16.29-5.73-16.29-14.87,0-8.46,7.21-13.74,17.31-13.74s18.11,5.51,18.11,14.3v.62h-11.07v-.4c0-2.16-2.21-4.71-6.81-4.71-3.86,0-5.39,1.53-5.39,3.01,0,1.76,2.04,2.67,7.32,4.48,6.13,2.16,16.58,5.79,16.58,15.5,0,8.63-7.49,13.17-17.6,13.17-10.61,0-18.79-4.94-18.79-13.62v-.51h11.07Z"/>
    <path d="m0,217.96h38.94v11.01h-13.79v33.26h-11.35v-33.26H0v-11.01Z"/>
    <path d="m56.08,217.96h34v11.01h-22.65v6.36h18.62v10.27h-18.62v5.68h22.65v10.96h-34v-44.28Z"/>
    <path d="m151.04,250.37c-3.86,7.55-11.86,12.71-21,12.71-12.77,0-23.5-10.33-23.5-22.99s10.73-22.99,23.5-22.99c9.14,0,17.03,5.17,20.95,12.6l-10.33,4.66c-1.99-3.75-5.96-6.3-10.61-6.3-6.64,0-12.03,5.33-12.03,12.03s5.39,12.03,12.03,12.03c4.71,0,8.63-2.55,10.61-6.3l10.39,4.54Z"/>
    <path d="m208.77,217.96v44.28h-11.35v-16.46h-18.05v16.46h-11.3v-44.28h11.3v17.2h18.05v-17.2h11.35Z"/>
    <path d="m228.63,262.23v-44.28h9.65l19.75,24.75v-24.75h11.3v44.28h-9.59l-19.75-24.69v24.69h-11.35Z"/>
    <path d="m310.6,217.11c12.94,0,23.5,10.33,23.5,22.99s-10.56,22.99-23.5,22.99-23.5-10.33-23.5-22.99,10.73-22.99,23.5-22.99Zm0,35.02c6.81,0,12.03-5.34,12.03-12.03s-5.22-12.03-12.03-12.03-12.03,5.33-12.03,12.03,5.39,12.03,12.03,12.03Z"/>
    <path d="m351.86,217.96h11.3v33.32h21.23v10.96h-32.52v-44.28Z"/>
    <path d="m422.98,217.11c12.94,0,23.5,10.33,23.5,22.99s-10.56,22.99-23.5,22.99-23.5-10.33-23.5-22.99,10.73-22.99,23.5-22.99Zm0,35.02c6.81,0,12.03-5.34,12.03-12.03s-5.22-12.03-12.03-12.03-12.03,5.33-12.03,12.03,5.39,12.03,12.03,12.03Z"/>
    <path d="m484.4,236.4h21.34v25.83h-8.91v-4.14c-2.16,3.29-6.64,5-11.18,5-12.83,0-23.5-10.33-23.5-22.99s10.67-22.99,23.5-22.99c7.61,0,14.47,3.69,18.73,9.25l-9.25,6.24c-2.21-2.78-5.62-4.54-9.48-4.54-6.7,0-12.03,5.33-12.03,12.03s5.34,12.03,12.03,12.03c3.97,0,7.38-1.99,9.48-5.05v-1.25h-10.73v-9.42Z"/>
    <path d="m535.88,217.96v44.28h-11.35v-44.28h11.35Z"/>
    <path d="m555.75,217.96h34v11.01h-22.65v6.36h18.62v10.27h-18.62v5.68h22.65v10.96h-34v-44.28Z"/>
    <path d="m617.62,248.95v.28c0,1.7,2.33,4.03,7.49,4.03,4.26,0,5.62-1.42,5.62-2.72,0-1.87-2.21-3.01-7.55-4.82-7.04-2.33-16.29-5.73-16.29-14.87,0-8.46,7.21-13.74,17.31-13.74s18.11,5.51,18.11,14.3v.62h-11.07v-.4c0-2.16-2.21-4.71-6.81-4.71-3.86,0-5.39,1.53-5.39,3.01,0,1.76,2.04,2.67,7.32,4.48,6.13,2.16,16.58,5.79,16.58,15.5,0,8.63-7.49,13.17-17.6,13.17-10.61,0-18.79-4.94-18.79-13.62v-.51h11.07Z"/>
  </g>
  <g>
    <path class="cls-2" d="m267.42,28.43c1.84.5,3.73-.59,4.23-2.43.5-1.84-.59-3.73-2.43-4.23-1.84-.5-3.73.59-4.23,2.43-.5,1.84.59,3.73,2.43,4.23Z"/>
    <path class="cls-2" d="m325.88,3h-71.43c.72.85,2.25,3.16,2.38,5.57.13,2.41-.42,3.89-.42,3.89l-5.5,19.58h4.7c2.85,0,5.48.92,7.64,2.46l.64-2.38c-3.02-1.9-4.62-5.58-3.64-9.21,1.2-4.45,5.78-7.09,10.24-5.89,4.45,1.2,7.09,5.78,5.89,10.24-.98,3.63-4.21,6.01-7.77,6.13l-1.48,5.49c1.05,1.9,1.71,4.05,1.71,6.38v30.36l14.13-52.41c-3.02-1.9-4.62-5.58-3.64-9.21,1.2-4.45,5.78-7.09,10.24-5.89,4.45,1.2,7.09,5.78,5.89,10.24-.98,3.63-4.21,6.01-7.77,6.13l-18.84,69.9v18.91c0,2.92,1.94,5.36,4.6,6.18l3.19-11.82,3.94-14.63c-3.02-1.9-4.62-5.58-3.64-9.21,1.2-4.45,5.78-7.09,10.24-5.89,4.45,1.2,7.09,5.78,5.89,10.24-.98,3.63-4.21,6.01-7.77,6.13l-5.28,19.6-1.59,5.89h13.89c3.59,0,6.49-2.91,6.49-6.49V45.27c0-7.3,5.92-13.22,13.22-13.22h13.87c3.59,0,6.49-2.91,6.49-6.49V9.49c0-3.59-2.91-6.49-6.49-6.49Z"/>
    <path class="cls-2" d="m290.72,17.09c.5-1.84-.59-3.73-2.43-4.23-1.84-.5-3.73.59-4.23,2.43-.5,1.84.59,3.73,2.43,4.23,1.84.5,3.73-.59,4.23-2.43Z"/>
    <path class="cls-2" d="m288.32,86.9c.5-1.84-.59-3.73-2.43-4.23-1.84-.5-3.73.59-4.23,2.43-.5,1.84.59,3.73,2.43,4.23,1.84.5,3.73-.59,4.23-2.43Z"/>
  </g>
  <g>
    <path class="cls-2" d="m57.8,3H12.78c-3.59,0-6.49,2.91-6.49,6.49v103.81c0,3.59,2.91,6.49,6.49,6.49h15.03l-9.1-33.74c-3.57-.12-6.8-2.51-7.77-6.13-1.2-4.45,1.44-9.04,5.89-10.24,4.45-1.2,9.04,1.44,10.24,5.89.98,3.63-.62,7.31-3.64,9.21l9.24,34.28c2.11-1.07,3.56-3.24,3.56-5.77v-6.79c0-2.86.93-5.49,2.47-7.65l-16.61-61.6c-3.57-.13-6.8-2.51-7.77-6.13-1.2-4.45,1.44-9.04,5.89-10.24,4.45-1.2,9.04,1.44,10.24,5.89.98,3.63-.62,7.31-3.64,9.21l15.95,59.17c1.97-1.17,4.24-1.88,6.69-1.88h4.36l-1.23-4.56c-3.57-.12-6.8-2.51-7.77-6.13-1.2-4.45,1.44-9.04,5.89-10.24,4.45-1.2,9.04,1.44,10.24,5.89.98,3.63-.62,7.31-3.64,9.21l1.56,5.78c30.25-.49,44.76-21.06,44.76-45.48S88.8,3,57.8,3Zm-1.65,63.04h-10.16c-5.39,0-9.76-4.37-9.76-9.76v-16.27c0-5.39,4.37-9.76,9.76-9.76h10.16c12.58,0,17.22,8.39,17.22,17.67,0,10.33-4.64,18.12-17.22,18.12Z"/>
    <path class="cls-2" d="m51.99,77.1c-1.84.5-2.93,2.39-2.43,4.23.5,1.84,2.39,2.93,4.23,2.43,1.84-.5,2.93-2.39,2.43-4.23-.5-1.84-2.39-2.93-4.23-2.43Z"/>
    <path class="cls-2" d="m21.49,25.63c-1.84.5-2.93,2.39-2.43,4.23.5,1.84,2.39,2.93,4.23,2.43,1.84-.5,2.93-2.39,2.43-4.23-.5-1.84-2.39-2.93-4.23-2.43Z"/>
    <path class="cls-2" d="m18.11,74.42c-1.84.5-2.93,2.39-2.43,4.23.5,1.84,2.39,2.93,4.23,2.43,1.84-.5,2.93-2.39,2.43-4.23-.5-1.84-2.39-2.93-4.23-2.43Z"/>
  </g>
  <g>
    <path class="cls-2" d="m147.17,63.38c-1.91,0-3.45,1.55-3.45,3.45s1.55,3.45,3.45,3.45,3.45-1.55,3.45-3.45-1.55-3.45-3.45-3.45Z"/>
    <path class="cls-2" d="m162.22,25.51c-1.91,0-3.45,1.55-3.45,3.45s1.55,3.45,3.45,3.45,3.45-1.55,3.45-3.45-1.55-3.45-3.45-3.45Z"/>
    <path class="cls-2" d="m177.27,50.01c-1.91,0-3.45,1.55-3.45,3.45s1.55,3.45,3.45,3.45,3.45-1.55,3.45-3.45-1.55-3.45-3.45-3.45Z"/>
    <path class="cls-2" d="m246.9,3h-18.51c-2.93,0-5.5,1.96-6.27,4.79l-11.76,43.3c-1.7,6.26-10.52,6.43-12.46.25l-13.78-43.79c-.85-2.71-3.36-4.55-6.2-4.55h-17.12c-2.84,0-5.35,1.84-6.2,4.55l-13.78,43.89c-1.94,6.19-10.77,6.02-12.46-.25l-11.76-43.4c-.77-2.83-3.34-4.8-6.27-4.8h-18.36c-2.71,0-4.94,1.63-5.93,3.87,15.19,9.96,20.72,25.08,21.06,40.64.29,13.14-4.68,23.21-4.68,23.21l12.45,44.35c.79,2.8,3.34,4.74,6.25,4.74h21.36c.78,0,1.54-.15,2.24-.41v-44.61c-3.41-1.05-5.91-4.19-5.91-7.95,0-4.61,3.74-8.35,8.35-8.35s8.35,3.74,8.35,8.35c0,3.76-2.5,6.9-5.91,7.95v37.82l10.17-29.16v-46.53c-3.41-1.05-5.91-4.19-5.91-7.95,0-4.61,3.74-8.35,8.35-8.35s8.35,3.74,8.35,8.35c0,3.76-2.5,6.9-5.91,7.95v34.31c2.78-3.01,7.91-2.69,10.17.97v-10.79c-3.41-1.05-5.91-4.19-5.91-7.95,0-4.61,3.74-8.35,8.35-8.35s8.35,3.74,8.35,8.35c0,3.76-2.5,6.9-5.91,7.95v24.03l10.5,29.9c.88,2.66,3.36,4.47,6.17,4.47h21.37c2.91,0,5.47-1.94,6.25-4.74l29.15-103.82c1.16-4.14-1.95-8.25-6.25-8.25Z"/>
  </g>
  <path class="cls-1" d="m264.42,25.43c1.84.5,3.73-.59,4.23-2.43.5-1.84-.59-3.73-2.43-4.23-1.84-.5-3.73.59-4.23,2.43-.5,1.84.59,3.73,2.43,4.23Z"/>
  <path class="cls-1" d="m251.45,0c.72.85,2.25,3.16,2.38,5.57.13,2.41-.42,3.89-.42,3.89l-5.5,19.58h4.7c2.85,0,5.48.92,7.64,2.46l.64-2.38c-3.02-1.9-4.62-5.58-3.64-9.21,1.2-4.45,5.78-7.09,10.24-5.89,4.45,1.2,7.09,5.78,5.89,10.24-.98,3.63-4.21,6.01-7.77,6.13l-1.48,5.49c1.05,1.9,1.71,4.05,1.71,6.38v30.36l14.13-52.41c-3.02-1.9-4.62-5.58-3.64-9.21,1.2-4.45,5.78-7.09,10.24-5.89,4.45,1.2,7.09,5.78,5.89,10.24-.98,3.63-4.21,6.01-7.77,6.13l-18.84,69.9v18.91c0,2.92,1.94,5.36,4.6,6.18l3.19-11.82,3.94-14.63c-3.02-1.9-4.62-5.58-3.64-9.21,1.2-4.45,5.78-7.09,10.24-5.89,4.45,1.2,7.09,5.78,5.89,10.24-.98,3.63-4.21,6.01-7.77,6.13l-5.28,19.6-1.59,5.89h13.89c3.59,0,6.49-2.91,6.49-6.49V42.27c0-7.3,5.92-13.22,13.22-13.22h13.87c3.59,0,6.49-2.91,6.49-6.49V6.49c0-3.59-2.91-6.49-6.49-6.49"/>
  <path class="cls-1" d="m287.72,14.09c.5-1.84-.59-3.73-2.43-4.23-1.84-.5-3.73.59-4.23,2.43-.5,1.84.59,3.73,2.43,4.23,1.84.5,3.73-.59,4.23-2.43Z"/>
  <path class="cls-1" d="m285.32,83.9c.5-1.84-.59-3.73-2.43-4.23-1.84-.5-3.73.59-4.23,2.43-.5,1.84.59,3.73,2.43,4.23,1.84.5,3.73-.59,4.23-2.43Z"/>
  <path class="cls-1" d="m9.78,0C6.2,0,3.29,2.91,3.29,6.49v103.81c0,3.59,2.91,6.49,6.49,6.49h15.03l-9.1-33.74c-3.57-.12-6.8-2.51-7.77-6.13-1.2-4.45,1.44-9.04,5.89-10.24,4.45-1.2,9.04,1.44,10.24,5.89.98,3.63-.62,7.31-3.64,9.21l9.24,34.28c2.11-1.07,3.56-3.24,3.56-5.77v-6.79c0-2.86.93-5.49,2.47-7.65l-16.61-61.6c-3.57-.13-6.8-2.51-7.77-6.13-1.2-4.45,1.44-9.04,5.89-10.24,4.45-1.2,9.04,1.44,10.24,5.89.98,3.63-.62,7.31-3.64,9.21l15.95,59.17c1.97-1.17,4.24-1.88,6.69-1.88h4.36l-1.23-4.56c-3.57-.12-6.8-2.51-7.77-6.13-1.2-4.45,1.44-9.04,5.89-10.24,4.45-1.2,9.04,1.44,10.24,5.89.98,3.63-.62,7.31-3.64,9.21l1.56,5.78c30.25-.49,44.76-21.06,44.76-45.48S85.8,0,54.8,0"/>
  <path class="cls-1" d="m53.16,63.04h-10.16c-5.39,0-9.76-4.37-9.76-9.76v-16.27c0-5.39,4.37-9.76,9.76-9.76h10.16c12.58,0,17.22,8.39,17.22,17.67,0,10.33-4.64,18.12-17.22,18.12Z"/>
  <path class="cls-1" d="m48.99,74.1c-1.84.5-2.93,2.39-2.43,4.23.5,1.84,2.39,2.93,4.23,2.43,1.84-.5,2.93-2.39,2.43-4.23-.5-1.84-2.39-2.93-4.23-2.43Z"/>
  <path class="cls-1" d="m18.49,22.63c-1.84.5-2.93,2.39-2.43,4.23.5,1.84,2.39,2.93,4.23,2.43,1.84-.5,2.93-2.39,2.43-4.23-.5-1.84-2.39-2.93-4.23-2.43Z"/>
  <path class="cls-1" d="m15.11,71.42c-1.84.5-2.93,2.39-2.43,4.23.5,1.84,2.39,2.93,4.23,2.43,1.84-.5,2.93-2.39,2.43-4.23-.5-1.84-2.39-2.93-4.23-2.43Z"/>
  <path class="cls-1" d="m144.17,60.38c-1.91,0-3.45,1.55-3.45,3.45s1.55,3.45,3.45,3.45,3.45-1.55,3.45-3.45-1.55-3.45-3.45-3.45Z"/>
  <path class="cls-1" d="m159.22,22.51c-1.91,0-3.45,1.55-3.45,3.45s1.55,3.45,3.45,3.45,3.45-1.55,3.45-3.45-1.55-3.45-3.45-3.45Z"/>
  <path class="cls-1" d="m174.27,47.01c-1.91,0-3.45,1.55-3.45,3.45s1.55,3.45,3.45,3.45,3.45-1.55,3.45-3.45-1.55-3.45-3.45-3.45Z"/>
  <path class="cls-1" d="m88.97,0c-2.71,0-4.94,1.63-5.93,3.87,15.19,9.96,20.72,25.08,21.06,40.64.29,13.14-4.68,23.21-4.68,23.21l12.45,44.35c.79,2.8,3.34,4.74,6.25,4.74h21.36c.78,0,1.54-.15,2.24-.41v-44.61c-3.41-1.05-5.91-4.19-5.91-7.95,0-4.61,3.74-8.35,8.35-8.35s8.35,3.74,8.35,8.35c0,3.76-2.5,6.9-5.91,7.95v37.82l10.17-29.16v-46.53c-3.41-1.05-5.91-4.19-5.91-7.95,0-4.61,3.74-8.35,8.35-8.35s8.35,3.74,8.35,8.35c0,3.76-2.5,6.9-5.91,7.95v34.31c2.78-3.01,7.91-2.69,10.17.97v-10.79c-3.41-1.05-5.91-4.19-5.91-7.95,0-4.61,3.74-8.35,8.35-8.35s8.35,3.74,8.35,8.35c0,3.76-2.5,6.9-5.91,7.95v24.03l10.5,29.9c.88,2.66,3.36,4.47,6.17,4.47h21.37c2.91,0,5.47-1.94,6.25-4.74l29.15-103.82c1.16-4.14-1.95-8.25-6.25-8.25"/>
  <path class="cls-1" d="m157.8,0c-2.84,0-5.35,1.84-6.2,4.55l-13.78,43.89c-1.94,6.19-10.77,6.02-12.46-.25l-11.76-43.4c-.77-2.83-3.34-4.8-6.27-4.8"/>
  <path class="cls-1" d="m225.39,0c-2.93,0-5.5,1.96-6.27,4.79l-11.76,43.3c-1.7,6.26-10.52,6.43-12.46.25l-13.78-43.79c-.85-2.71-3.36-4.55-6.2-4.55"/>
</svg>